<?xml version="1.0" encoding="UTF-8"?>
<!DOCTYPE svg PUBLIC "-//W3C//DTD SVG 1.1//EN" "http://www.w3.org/Graphics/SVG/1.1/DTD/svg11.dtd">
<!-- Creator: CorelDRAW 2020 (64-Bit) -->
<svg xmlns="http://www.w3.org/2000/svg" xml:space="preserve" width="4.33334in" height="2.08433in" version="1.1" style="shape-rendering:geometricPrecision; text-rendering:geometricPrecision; image-rendering:optimizeQuality; fill-rule:evenodd; clip-rule:evenodd"
viewBox="0 0 4330 2082.72"
 xmlns:xlink="http://www.w3.org/1999/xlink"
 xmlns:xodm="http://www.corel.com/coreldraw/odm/2003">
 <defs>
  <style type="text/css">
   <![CDATA[
    .fil0 {fill:white}
    .fil6 {fill:black;fill-rule:nonzero}
    .fil1 {fill:#07063A;fill-rule:nonzero}
    .fil7 {fill:#0F1139;fill-rule:nonzero}
    .fil5 {fill:#111111;fill-rule:nonzero}
    .fil4 {fill:#1AB3FF;fill-rule:nonzero}
    .fil12 {fill:#2C51A2;fill-rule:nonzero}
    .fil10 {fill:#36A949;fill-rule:nonzero}
    .fil13 {fill:#BB549F;fill-rule:nonzero}
    .fil8 {fill:#D91F26;fill-rule:nonzero}
    .fil11 {fill:#DF236B;fill-rule:nonzero}
    .fil2 {fill:#FF017E;fill-rule:nonzero}
    .fil3 {fill:#FFE62E;fill-rule:nonzero}
    .fil9 {fill:white;fill-rule:nonzero}
   ]]>
  </style>
 </defs>
 <g id="Layer_x0020_1">
  <metadata id="CorelCorpID_0Corel-Layer"/>
  <rect class="fil0" x="0" y="1" width="4330" height="2081.73"/>
  <path class="fil1" d="M2212.75 340.62c0,26.57 21.88,48.11 48.87,48.11 26.99,0 48.87,-21.54 48.87,-48.11l-97.74 0z"/>
  <path class="fil2" d="M2279.25 325.19c0,-16.38 -13.49,-29.65 -30.12,-29.65 -16.64,0 -30.12,13.28 -30.12,29.65l60.24 0z"/>
  <path class="fil3" d="M2339.57 266.51c4.44,-4.37 11.64,-4.37 16.09,0 4.44,4.37 4.44,11.47 0,15.84 -4.45,4.37 -11.65,4.37 -16.09,0 -4.45,-4.37 -4.45,-11.47 0,-15.84z"/>
  <path class="fil4" d="M2313.82 291.86c4.44,-4.37 11.64,-4.37 16.09,0 4.44,4.37 4.44,11.47 0,15.85 -4.45,4.37 -11.65,4.37 -16.09,0 -4.45,-4.38 -4.45,-11.47 0,-15.85z"/>
  <path class="fil5" d="M2339.57 291.86c4.44,-4.37 11.64,-4.37 16.09,0 4.44,4.37 4.44,11.47 0,15.85 -4.45,4.37 -11.65,4.37 -16.09,0 -4.45,-4.38 -4.45,-11.47 0,-15.85z"/>
  <path class="fil2" d="M2313.82 266.51c4.44,-4.37 11.64,-4.37 16.09,0 4.44,4.37 4.44,11.47 0,15.84 -4.45,4.37 -11.65,4.37 -16.09,0 -4.45,-4.37 -4.45,-11.47 0,-15.84z"/>
  <path class="fil1" d="M1984.63 346.2l12.57 0c0.94,0 1.65,0.85 1.46,1.77l-0.41 2.03c-0.28,1.33 1.26,2.29 2.36,1.47 2.71,-2.01 5.3,-3.53 7.74,-4.55 3.39,-1.41 6.96,-2.12 10.71,-2.12 5.01,0 8.97,1.41 11.85,4.24 2.89,2.83 4.34,6.58 4.34,11.25 0,2.11 -0.63,6.11 -1.89,11.99l-6.93 32.8c-0.15,0.69 -0.76,1.18 -1.46,1.18l-13.42 0c-0.95,0 -1.66,-0.86 -1.46,-1.77l6.85 -32.31c1.07,-5.09 1.61,-8.12 1.61,-9.1 0,-2.07 -0.62,-3.7 -1.86,-4.89 -1.24,-1.18 -2.98,-1.78 -5.2,-1.78 -2.41,0 -5.09,1 -8.04,3 -2.95,1.99 -5.26,4.63 -6.95,7.91 -1.23,2.34 -2.6,7.1 -4.13,14.3l-4.98 23.47c-0.15,0.68 -0.76,1.17 -1.46,1.17l-13.42 0c-0.95,0 -1.66,-0.86 -1.47,-1.77l12.12 -57.09c0.15,-0.68 0.76,-1.17 1.47,-1.17z"/>
  <path class="fil1" d="M2086.29 371.36c0.82,0 1.49,-0.66 1.49,-1.46l0 -0.18c0,-4.45 -1.01,-7.78 -3.04,-10 -2.03,-2.23 -4.74,-3.34 -8.15,-3.34 -3.41,0 -6.46,1.26 -9.16,3.78 -2.36,2.21 -4.05,5.33 -5.07,9.37 -0.24,0.92 0.49,1.82 1.46,1.82l22.47 0zm14.13 9.89l-38.7 0c-0.82,0 -1.49,0.65 -1.49,1.46l0 0.01c0,3.99 1.16,7.22 3.47,9.67 2.31,2.45 5.14,3.67 8.47,3.67 5.19,0 9.3,-2.5 12.32,-7.51 0.31,-0.52 0.92,-0.78 1.52,-0.68l11.7 1.92c1.01,0.17 1.56,1.27 1.07,2.16 -2.75,4.94 -6.27,8.71 -10.56,11.32 -4.8,2.92 -10.19,4.38 -16.16,4.38 -8.19,0 -14.85,-2.55 -19.98,-7.66 -5.13,-5.11 -7.69,-11.86 -7.69,-20.26 0,-8.22 2.31,-15.53 6.95,-21.94 6.31,-8.67 15.33,-13 27.04,-13 7.47,0 13.4,2.27 17.8,6.81 4.4,4.54 6.6,10.9 6.6,19.08 0,3.43 -0.3,6.55 -0.88,9.38 -0.15,0.69 -0.76,1.19 -1.47,1.19z"/>
  <path class="fil1" d="M2157.03 369.72c0,-3.84 -1.14,-6.92 -3.42,-9.24 -2.28,-2.32 -5.22,-3.47 -8.81,-3.47 -3.56,0 -6.72,1.08 -9.47,3.25 -2.76,2.17 -4.9,5.31 -6.43,9.44 -1.53,4.13 -2.3,7.92 -2.3,11.39 0,4.3 1.18,7.71 3.56,10.23 2.37,2.53 5.36,3.79 8.95,3.79 4.52,0 8.3,-1.9 11.37,-5.71 4.36,-5.39 6.55,-11.95 6.55,-19.67zm-46.96 11.59c0,-11.12 3.19,-19.98 9.56,-26.6 6.37,-6.62 14.74,-9.92 25.12,-9.92 8.99,0 16.02,2.44 21.07,7.32 5.06,4.88 7.58,11.44 7.58,19.7 0,9.72 -3.16,18.13 -9.47,25.21 -6.31,7.09 -14.78,10.63 -25.38,10.63 -5.74,0 -10.83,-1.13 -15.27,-3.39 -4.44,-2.26 -7.75,-5.46 -9.93,-9.61 -2.18,-4.14 -3.27,-8.59 -3.27,-13.34z"/>
  <path class="fil1" d="M2065.64 449.89c0,4.67 1.16,8.3 3.47,10.89 2.32,2.58 5.04,3.87 8.18,3.87 2.71,0 5.34,-0.97 7.86,-2.91 2.53,-1.94 4.62,-5.16 6.29,-9.67 1.67,-4.5 2.5,-8.68 2.5,-12.52 0,-4.48 -1.09,-7.92 -3.28,-10.32 -2.18,-2.39 -4.96,-3.59 -8.32,-3.59 -3.14,0 -6,1.1 -8.58,3.3 -2.58,2.21 -4.59,5.45 -6,9.72 -1.42,4.28 -2.12,8.02 -2.12,11.22zm-8.71 -34.43l12.55 0c0.95,0 1.66,0.86 1.46,1.78l-0.1 0.49c-0.28,1.31 1.21,2.28 2.32,1.51 2.16,-1.5 4.23,-2.65 6.21,-3.44 2.91,-1.17 6.03,-1.75 9.35,-1.75 6.39,0 11.53,2.17 15.42,6.5 3.88,4.34 5.83,10.8 5.83,19.39 0,10.81 -3.35,19.95 -10.05,27.42 -5.74,6.37 -12.53,9.55 -20.38,9.55 -6.9,0 -12.37,-2.35 -16.4,-7.07 -0.8,-0.94 -2.35,-0.56 -2.6,0.65l-5.67 26.74c-0.14,0.68 -0.76,1.17 -1.46,1.17l-13.42 0c-0.95,0 -1.66,-0.86 -1.47,-1.78l16.94 -79.98c0.15,-0.68 0.76,-1.17 1.47,-1.17z"/>
  <path class="fil1" d="M2128.34 415.46l12.33 0c0.95,0 1.66,0.86 1.46,1.77l-0.71 3.37c-0.31,1.48 1.58,2.41 2.59,1.26 4.61,-5.21 9.5,-7.82 14.69,-7.82 1.93,0 3.97,0.39 6.13,1.16 0.82,0.3 1.21,1.23 0.83,2.01l-5.09 10.71c-0.31,0.65 -1.03,0.98 -1.73,0.79 -1.14,-0.29 -2.34,-0.43 -3.58,-0.43 -2.83,0 -5.71,1.05 -8.64,3.17 -2.93,2.11 -5.22,4.93 -6.86,8.45 -1.64,3.52 -3.27,9.11 -4.88,16.76l-3.77 17.65c-0.15,0.68 -0.76,1.17 -1.46,1.17l-13.42 0c-0.95,0 -1.66,-0.86 -1.46,-1.77l12.12 -57.09c0.15,-0.68 0.76,-1.17 1.46,-1.17z"/>
  <path class="fil1" d="M2179.84 392.63l13.42 0c0.95,0 1.66,0.86 1.47,1.77l-2.48 11.75c-0.14,0.69 -0.76,1.18 -1.46,1.18l-13.42 0c-0.95,0 -1.66,-0.86 -1.46,-1.77l2.48 -11.75c0.15,-0.68 0.76,-1.17 1.46,-1.17zm-4.82 22.84l13.42 0c0.95,0 1.66,0.86 1.46,1.77l-12.12 57.09c-0.15,0.68 -0.76,1.17 -1.47,1.17l-13.42 0c-0.95,0 -1.66,-0.86 -1.46,-1.77l12.12 -57.09c0.15,-0.68 0.76,-1.17 1.46,-1.17z"/>
  <path class="fil1" d="M2207.92 415.46l12.57 0c0.94,0 1.65,0.85 1.46,1.77l-0.41 2.03c-0.28,1.33 1.26,2.29 2.36,1.47 2.72,-2.02 5.3,-3.53 7.75,-4.56 3.39,-1.41 6.96,-2.12 10.71,-2.12 5.01,0 8.97,1.41 11.85,4.24 2.89,2.83 4.34,6.58 4.34,11.25 0,2.11 -0.63,6.11 -1.89,11.99l-6.93 32.8c-0.15,0.69 -0.76,1.18 -1.46,1.18l-13.42 0c-0.95,0 -1.66,-0.86 -1.46,-1.77l6.86 -32.31c1.07,-5.09 1.61,-8.12 1.61,-9.1 0,-2.07 -0.62,-3.7 -1.86,-4.89 -1.24,-1.18 -2.98,-1.78 -5.2,-1.78 -2.41,0 -5.09,1 -8.04,3 -2.95,1.99 -5.26,4.63 -6.95,7.91 -1.23,2.34 -2.6,7.1 -4.13,14.3l-4.98 23.47c-0.15,0.68 -0.76,1.17 -1.46,1.17l-13.42 0c-0.95,0 -1.66,-0.86 -1.46,-1.77l12.12 -57.09c0.15,-0.68 0.76,-1.17 1.47,-1.17z"/>
  <path class="fil1" d="M2270.06 425.73l1.91 -9.1c0.14,-0.68 0.76,-1.18 1.47,-1.18l5.6 0c0.71,0 1.32,-0.49 1.46,-1.18l1.63 -7.8c0.09,-0.4 0.34,-0.75 0.7,-0.96l15.39 -9.12c1.12,-0.66 2.51,0.31 2.24,1.57l-3.34 15.72c-0.2,0.92 0.51,1.77 1.46,1.77l6.37 0c0.95,0 1.66,0.86 1.46,1.77l-1.91 9.09c-0.14,0.68 -0.76,1.18 -1.47,1.18l-7.67 0c-0.71,0 -1.32,0.49 -1.46,1.17l-5.09 23.99c-0.96,4.56 -1.44,7.16 -1.44,7.8 0,1.25 0.4,2.21 1.2,2.92 0.8,0.7 2.26,1.04 4.36,1.04 0.54,0 1.69,-0.07 3.45,-0.22 1,-0.09 1.79,0.81 1.59,1.77l-1.96 9.13c-0.13,0.59 -0.59,1.05 -1.19,1.15 -2.52,0.44 -5.1,0.66 -7.74,0.66 -5.82,0 -10.05,-1.1 -12.69,-3.3 -2.64,-2.21 -3.96,-5.27 -3.96,-9.19 0,-1.84 0.7,-6.1 2.12,-12.77l4.73 -22.36c0.19,-0.92 -0.52,-1.77 -1.47,-1.77l-4.3 0c-0.95,0 -1.66,-0.86 -1.47,-1.77z"/>
  <path class="fil1" d="M2333.45 306.89c-0.54,0.85 -1.18,1.66 -1.93,2.4 -2.58,2.54 -6.01,3.93 -9.65,3.93 -3.65,0 -7.08,-1.4 -9.66,-3.93 -5.32,-5.24 -5.32,-13.77 0,-19.02 1.46,-1.44 3.19,-2.51 5.08,-3.17 -1.89,-0.66 -3.62,-1.73 -5.08,-3.17 -2.58,-2.54 -4,-5.92 -4,-9.5 0,-0.61 0.04,-1.22 0.13,-1.82 -15.93,-13.46 -36.62,-21.61 -59.21,-21.61 -50.19,0 -91.02,40.21 -91.02,89.62l29.65 0c0,-33.32 27.53,-60.42 61.37,-60.42 33.84,0 61.37,27.11 61.37,60.42l29.65 0c0,-11.93 -2.38,-23.31 -6.7,-33.73z"/>
  <path class="fil6" d="M1720.13 784.32l0 -18.56c3.42,2.83 7.15,4.95 11.15,6.37 4,1.42 8.04,2.12 12.1,2.12 2.4,0 4.48,-0.2 6.29,-0.64 1.78,-0.44 3.28,-1.01 4.48,-1.79 1.2,-0.77 2.09,-1.65 2.67,-2.69 0.58,-1.01 0.89,-2.12 0.89,-3.3 0,-1.65 -0.48,-3.1 -1.4,-4.37 -0.96,-1.25 -2.26,-2.43 -3.87,-3.54 -1.64,-1.08 -3.59,-2.12 -5.81,-3.13 -2.22,-0.98 -4.65,-2.02 -7.25,-3.07 -6.6,-2.69 -11.49,-5.99 -14.74,-9.9 -3.25,-3.91 -4.89,-8.62 -4.89,-14.18 0,-4.35 0.89,-8.05 2.67,-11.18 1.78,-3.1 4.17,-5.66 7.21,-7.68 3.04,-1.99 6.57,-3.47 10.57,-4.41 4,-0.94 8.24,-1.41 12.72,-1.41 4.41,0 8.31,0.27 11.7,0.77 3.38,0.5 6.53,1.31 9.41,2.39l0 17.34c-1.4,-0.98 -2.94,-1.82 -4.62,-2.56 -1.68,-0.71 -3.39,-1.31 -5.17,-1.82 -1.78,-0.47 -3.52,-0.84 -5.27,-1.08 -1.74,-0.24 -3.42,-0.33 -4.99,-0.33 -2.16,0 -4.11,0.2 -5.85,0.61 -1.78,0.41 -3.28,0.98 -4.48,1.72 -1.23,0.74 -2.19,1.61 -2.84,2.62 -0.68,1.05 -1.03,2.19 -1.03,3.47 0,1.38 0.38,2.63 1.13,3.74 0.76,1.11 1.81,2.16 3.18,3.13 1.37,0.98 3.04,1.96 4.99,2.9 1.95,0.94 4.17,1.92 6.67,2.93 3.39,1.38 6.4,2.86 9.1,4.45 2.7,1.59 4.99,3.34 6.94,5.29 1.92,1.99 3.39,4.24 4.41,6.77 0.99,2.53 1.51,5.49 1.51,8.86 0,4.65 -0.89,8.56 -2.67,11.69 -1.78,3.13 -4.21,5.69 -7.25,7.64 -3.08,1.96 -6.64,3.37 -10.7,4.21 -4.07,0.84 -8.38,1.28 -12.9,1.28 -4.62,0 -9.03,-0.37 -13.2,-1.14 -4.21,-0.77 -7.83,-1.95 -10.88,-3.5zm123.88 -21.28l-39.37 0c0.65,8.62 6.16,12.93 16.55,12.93 6.64,0 12.49,-1.55 17.51,-4.65l0 13.23c-5.58,2.93 -12.83,4.41 -21.75,4.41 -9.75,0 -17.31,-2.66 -22.68,-7.98 -5.37,-5.32 -8.07,-12.73 -8.07,-22.23 0,-9.87 2.91,-17.71 8.72,-23.47 5.81,-5.76 12.96,-8.62 21.44,-8.62 8.79,0 15.6,2.56 20.42,7.71 4.82,5.15 7.21,12.12 7.21,20.94l0 7.71zm-17.27 -11.25c0,-8.52 -3.49,-12.77 -10.46,-12.77 -2.97,0 -5.57,1.21 -7.76,3.64 -2.19,2.46 -3.52,5.49 -3.97,9.13l22.2 0zm46.96 35.73l-18.61 0 0 -87.93 18.61 0 0 87.93zm65.91 0l-17.62 0 0 -8.52 -0.24 0c-4.07,6.63 -10.06,9.96 -17.99,9.96 -5.85,0 -10.43,-1.65 -13.78,-4.91 -3.38,-3.27 -5.06,-7.61 -5.06,-13.07 0,-11.51 6.94,-18.15 20.8,-19.94l16.38 -2.16c0,-6.5 -3.56,-9.76 -10.7,-9.76 -7.21,0 -14.06,2.12 -20.52,6.33l0 -13.81c2.6,-1.31 6.16,-2.45 10.64,-3.47 4.48,-1.01 8.59,-1.51 12.28,-1.51 17.2,0 25.82,8.45 25.82,25.36l0 35.49zm-17.51 -24.15l0 -3.97 -10.94 1.38c-6.05,0.77 -9.1,3.44 -9.1,8.05 0,2.09 0.76,3.81 2.23,5.12 1.47,1.35 3.49,2.02 5.98,2.02 3.49,0 6.33,-1.18 8.55,-3.57 2.19,-2.39 3.28,-5.39 3.28,-9.03zm128.02 24.15l-18.57 0 0 -33.88c0,-8.62 -3.21,-12.93 -9.65,-12.93 -3.04,0 -5.54,1.28 -7.45,3.87 -1.95,2.59 -2.91,5.83 -2.91,9.7l0 33.24 -18.64 0 0 -34.21c0,-8.39 -3.15,-12.6 -9.48,-12.6 -3.18,0 -5.71,1.25 -7.63,3.71 -1.92,2.46 -2.87,5.83 -2.87,10.1l0 33 -18.61 0 0 -59.4 18.61 0 0 9.29 0.24 0c1.95,-3.2 4.65,-5.79 8.14,-7.78 3.45,-1.99 7.25,-2.96 11.36,-2.96 8.52,0 14.36,3.7 17.51,11.08 4.62,-7.38 11.36,-11.08 20.28,-11.08 13.1,0 19.67,7.98 19.67,23.91l0 36.94zm64.92 0l-17.62 0 0 -8.52 -0.24 0c-4.07,6.63 -10.06,9.96 -17.99,9.96 -5.85,0 -10.43,-1.65 -13.78,-4.91 -3.39,-3.27 -5.06,-7.61 -5.06,-13.07 0,-11.51 6.94,-18.15 20.8,-19.94l16.38 -2.16c0,-6.5 -3.56,-9.76 -10.7,-9.76 -7.21,0 -14.06,2.12 -20.52,6.33l0 -13.81c2.6,-1.31 6.16,-2.45 10.64,-3.47 4.48,-1.01 8.58,-1.51 12.28,-1.51 17.2,0 25.82,8.45 25.82,25.36l0 35.49zm-17.51 -24.15l0 -3.97 -10.94 1.38c-6.05,0.77 -9.1,3.44 -9.1,8.05 0,2.09 0.75,3.81 2.22,5.12 1.47,1.35 3.49,2.02 5.98,2.02 3.49,0 6.33,-1.18 8.55,-3.57 2.19,-2.39 3.28,-5.39 3.28,-9.03zm68.68 23.44c-2.74,1.45 -6.88,2.15 -12.42,2.15 -13.1,0 -19.67,-6.7 -19.67,-20.14l0 -27.21 -9.78 0 0 -13.5 9.78 0 0 -12.83 18.54 -5.22 0 18.05 13.54 0 0 13.5 -13.54 0 0 24.05c0,6.16 2.49,9.26 7.49,9.26 1.95,0 3.97,-0.57 6.05,-1.68l0 13.57zm45.59 0.7l0 -83.18 29.96 0c30,0 45.01,13.51 45.01,40.55 0,12.97 -4.1,23.3 -12.28,31.02 -8.21,7.75 -19.12,11.62 -32.73,11.62l-29.96 0zm19.05 -67.92l0 52.74 9.41 0c8.24,0 14.74,-2.43 19.43,-7.31 4.69,-4.88 7.05,-11.52 7.05,-19.9 0,-7.92 -2.32,-14.18 -6.97,-18.73 -4.65,-4.55 -11.18,-6.8 -19.6,-6.8l-9.3 0zm118.31 67.92l-17.62 0 0 -8.52 -0.24 0c-4.07,6.63 -10.06,9.96 -17.99,9.96 -5.85,0 -10.43,-1.65 -13.78,-4.91 -3.39,-3.27 -5.06,-7.61 -5.06,-13.07 0,-11.51 6.94,-18.15 20.8,-19.94l16.39 -2.16c0,-6.5 -3.56,-9.76 -10.7,-9.76 -7.22,0 -14.06,2.12 -20.52,6.33l0 -13.81c2.6,-1.31 6.16,-2.45 10.64,-3.47 4.48,-1.01 8.58,-1.51 12.28,-1.51 17.21,0 25.83,8.45 25.83,25.36l0 35.49zm-17.51 -24.15l0 -3.97 -10.94 1.38c-6.05,0.77 -9.1,3.44 -9.1,8.05 0,2.09 0.75,3.81 2.22,5.12 1.47,1.35 3.49,2.02 5.99,2.02 3.49,0 6.33,-1.18 8.55,-3.57 2.19,-2.39 3.28,-5.39 3.28,-9.03zm68.68 23.44c-2.73,1.45 -6.87,2.15 -12.42,2.15 -13.1,0 -19.67,-6.7 -19.67,-20.14l0 -27.21 -9.78 0 0 -13.5 9.78 0 0 -12.83 18.54 -5.22 0 18.05 13.54 0 0 13.5 -13.54 0 0 24.05c0,6.16 2.5,9.26 7.49,9.26 1.95,0 3.97,-0.57 6.05,-1.68l0 13.57zm60.71 0.7l-17.62 0 0 -8.52 -0.24 0c-4.07,6.63 -10.06,9.96 -17.99,9.96 -5.85,0 -10.43,-1.65 -13.78,-4.91 -3.39,-3.27 -5.06,-7.61 -5.06,-13.07 0,-11.51 6.94,-18.15 20.8,-19.94l16.38 -2.16c0,-6.5 -3.56,-9.76 -10.7,-9.76 -7.22,0 -14.06,2.12 -20.52,6.33l0 -13.81c2.6,-1.31 6.16,-2.45 10.64,-3.47 4.48,-1.01 8.58,-1.51 12.28,-1.51 17.2,0 25.82,8.45 25.82,25.36l0 35.49zm-17.51 -24.15l0 -3.97 -10.94 1.38c-6.05,0.77 -9.1,3.44 -9.1,8.05 0,2.09 0.76,3.81 2.23,5.12 1.47,1.35 3.49,2.02 5.98,2.02 3.49,0 6.33,-1.18 8.55,-3.57 2.19,-2.39 3.28,-5.39 3.28,-9.03zm90.5 24.15l-18.57 0 0 -33c0,-9.19 -3.35,-13.81 -10.02,-13.81 -3.21,0 -5.85,1.21 -7.93,3.64 -2.09,2.46 -3.15,5.55 -3.15,9.29l0 33.88 -18.61 0 0 -59.4 18.61 0 0 9.39 0.24 0c4.45,-7.24 10.91,-10.84 19.39,-10.84 13.38,0 20.04,8.15 20.04,24.48l0 36.37zm73.88 -6.8c0,11.02 -3.25,19.57 -9.71,25.63 -6.5,6.06 -15.91,9.09 -28.18,9.09 -8.14,0 -14.57,-1.14 -19.33,-3.43l0 -15.43c6.19,3.54 12.45,5.32 18.78,5.32 6.29,0 11.18,-1.62 14.64,-4.88 3.45,-3.27 5.17,-7.71 5.17,-13.34l0 -4.68 -0.24 0c-4.24,6.63 -10.5,9.96 -18.78,9.96 -7.69,0 -13.82,-2.66 -18.33,-8.01 -4.51,-5.32 -6.77,-12.46 -6.77,-21.45 0,-10.07 2.53,-18.05 7.56,-23.98 5.03,-5.89 11.63,-8.86 19.84,-8.86 7.35,0 12.82,2.79 16.49,8.35l0.24 0 0 -6.9 18.64 0 0 52.6zm-18.4 -21.72l0 -4.72c0,-3.74 -1.13,-6.94 -3.38,-9.6 -2.26,-2.66 -5.2,-3.97 -8.79,-3.97 -4.14,0 -7.35,1.59 -9.71,4.75 -2.36,3.17 -3.56,7.65 -3.56,13.4 0,4.95 1.13,8.89 3.35,11.75 2.22,2.86 5.3,4.31 9.2,4.31 3.86,0 6.97,-1.45 9.34,-4.38 2.36,-2.93 3.56,-6.77 3.56,-11.55z"/>
  <g>
   <path class="fil6" d="M2842.99 755.83l-190.5 0 0 -1.99 190.5 0 0 0 0 1.99zm379.86 -376.01l2.02 0 0 0 -0.5 19.35 -1.48 19.1 -2.43 18.81 -3.36 18.52 -4.26 18.19 -5.15 17.84 -6 17.47 -6.83 17.08 -7.65 16.65 -8.43 16.22 -9.2 15.74 -9.93 15.26 -10.65 14.74 -11.34 14.2 -12 13.64 -12.64 13.06 -13.27 12.45 -13.86 11.82 -14.43 11.16 -14.97 10.48 -15.5 9.78 -15.99 9.06 -16.46 8.3 -16.92 7.53 -17.34 6.73 -17.75 5.91 -18.12 5.07 -18.48 4.2 -18.8 3.31 -19.11 2.39 -19.39 1.45 -19.65 0.49 0 -1.99 19.55 -0.49 19.29 -1.44 19.01 -2.38 18.71 -3.29 18.38 -4.17 18.03 -5.04 17.65 -5.88 17.25 -6.7 16.83 -7.49 16.38 -8.26 15.91 -9.01 15.41 -9.73 14.89 -10.43 14.35 -11.1 13.78 -11.75 13.19 -12.39 12.58 -12.99 11.94 -13.57 11.27 -14.13 10.59 -14.67 9.88 -15.17 9.15 -15.67 8.39 -16.13 7.61 -16.57 6.8 -16.98 5.97 -17.38 5.12 -17.75 4.24 -18.1 3.34 -18.42 2.42 -18.72 1.47 -18.99 0.5 -19.25 0 0zm2.02 -378.82l0 378.82 -2.02 0 0 -378.82 1.01 -1 1.01 1zm-1.01 -1l1.01 0 0 1 -1.01 -1zm-2117.74 0l2117.74 0 0 1.99 -2117.74 0 -1.01 -1 1.01 -1zm-1.01 1l0 -1 1.01 0 -1.01 1zm0 378.82l0 -378.82 2.02 0 0 378.82 0 0 -2.02 0zm381.89 374.02l0 1.99 0 0 -19.65 -0.49 -19.39 -1.45 -19.11 -2.39 -18.8 -3.31 -18.48 -4.2 -18.12 -5.07 -17.75 -5.91 -17.34 -6.73 -16.92 -7.53 -16.46 -8.3 -15.99 -9.06 -15.5 -9.78 -14.97 -10.48 -14.43 -11.16 -13.86 -11.82 -13.27 -12.45 -12.64 -13.06 -12 -13.64 -11.34 -14.2 -10.65 -14.74 -9.93 -15.26 -9.2 -15.74 -8.43 -16.22 -7.65 -16.65 -6.83 -17.08 -6 -17.47 -5.15 -17.84 -4.26 -18.19 -3.36 -18.52 -2.43 -18.81 -1.48 -19.1 -0.5 -19.35 2.02 0 0.5 19.25 1.47 18.99 2.42 18.72 3.34 18.42 4.24 18.1 5.12 17.75 5.97 17.38 6.8 16.98 7.61 16.57 8.39 16.13 9.15 15.67 9.88 15.17 10.59 14.67 11.27 14.13 11.94 13.57 12.58 12.99 13.19 12.39 13.78 11.75 14.35 11.1 14.89 10.43 15.41 9.73 15.91 9.01 16.38 8.26 16.83 7.49 17.25 6.7 17.65 5.88 18.03 5.04 18.38 4.17 18.71 3.29 19.01 2.38 19.29 1.44 19.55 0.49 0 0zm190.5 1.99l-190.5 0 0 -1.99 190.5 0 0 1.99z"/>
  </g>
  <polygon class="fil7" points="2666.99,1992.51 2662.75,1992.51 2662.75,1934.82 2666.99,1934.82 "/>
  <path class="fil7" d="M1326.38 1978.65c-1.14,0 -2.11,-0.37 -2.92,-1.11 -0.81,-0.75 -1.2,-1.63 -1.2,-2.66 0,-1.05 0.39,-1.95 1.2,-2.71 0.8,-0.75 1.77,-1.13 2.92,-1.13 1.16,0 2.15,0.38 2.96,1.13 0.81,0.76 1.22,1.66 1.22,2.71 0,1.03 -0.4,1.91 -1.22,2.66 -0.81,0.74 -1.8,1.11 -2.96,1.11zm0 -22.28c-1.14,0 -2.11,-0.37 -2.92,-1.13 -0.81,-0.73 -1.2,-1.62 -1.2,-2.65 0,-1.06 0.39,-1.96 1.2,-2.7 0.8,-0.76 1.77,-1.13 2.92,-1.13 1.16,0 2.15,0.37 2.96,1.13 0.81,0.75 1.22,1.64 1.22,2.7 0,1.03 -0.4,1.92 -1.22,2.65 -0.81,0.76 -1.8,1.13 -2.96,1.13z"/>
  <path class="fil7" d="M2016.4 1978.94l-4.69 0 0 -16.45c0,-6.13 -2.27,-9.19 -6.81,-9.19 -2.34,0 -4.28,0.87 -5.82,2.61 -1.53,1.73 -2.3,3.93 -2.3,6.58l0 16.45 -4.69 0 0 -28.85 4.69 0 0 4.79 0.11 0c2.21,-3.65 5.42,-5.46 9.61,-5.46 3.21,0 5.66,1.02 7.36,3.06 1.69,2.04 2.55,4.98 2.55,8.83l0 17.64z"/>
  <path class="fil7" d="M2043.97 1961.75c-0.02,-2.66 -0.67,-4.74 -1.96,-6.22 -1.29,-1.49 -3.08,-2.23 -5.36,-2.23 -2.21,0 -4.1,0.77 -5.64,2.34 -1.54,1.56 -2.49,3.6 -2.86,6.11l15.82 0zm4.81 3.92l-20.68 0c0.07,3.21 0.95,5.69 2.64,7.44 1.67,1.75 3.99,2.62 6.92,2.62 3.29,0 6.33,-1.07 9.09,-3.22l0 4.34c-2.57,1.84 -5.98,2.76 -10.21,2.76 -4.14,0 -7.38,-1.31 -9.75,-3.93 -2.37,-2.62 -3.55,-6.31 -3.55,-11.06 0,-4.48 1.3,-8.14 3.88,-10.97 2.58,-2.82 5.79,-4.23 9.62,-4.23 3.84,0 6.8,1.22 8.91,3.66 2.09,2.44 3.14,5.83 3.14,10.17l0 2.42z"/>
  <path class="fil7" d="M2068.46 1953.3c-3.01,0 -5.39,1.01 -7.15,3.03 -1.75,2.01 -2.64,4.8 -2.64,8.35 0,3.41 0.89,6.11 2.66,8.09 1.77,1.97 4.15,2.96 7.12,2.96 3.04,0 5.37,-0.97 7,-2.91 1.63,-1.93 2.45,-4.68 2.45,-8.25 0,-3.61 -0.82,-6.39 -2.45,-8.34 -1.63,-1.96 -3.96,-2.93 -7,-2.93zm-0.34 26.31c-4.34,0 -7.79,-1.34 -10.37,-4.04 -2.58,-2.7 -3.87,-6.27 -3.87,-10.72 0,-4.84 1.35,-8.63 4.03,-11.35 2.69,-2.72 6.33,-4.09 10.9,-4.09 4.36,0 7.78,1.33 10.23,3.97 2.45,2.65 3.67,6.31 3.67,11.02 0,4.6 -1.32,8.28 -3.96,11.05 -2.64,2.77 -6.18,4.15 -10.63,4.15z"/>
  <path class="fil7" d="M2094.9 1963.13l0 4.02c0,2.39 0.79,4.42 2.36,6.07 1.58,1.67 3.57,2.5 6,2.5 2.84,0 5.07,-1.07 6.68,-3.22 1.61,-2.14 2.42,-5.11 2.42,-8.92 0,-3.22 -0.75,-5.74 -2.25,-7.55 -1.51,-1.82 -3.55,-2.73 -6.13,-2.73 -2.73,0 -4.92,0.93 -6.58,2.8 -1.66,1.86 -2.49,4.21 -2.49,7.03zm0.11 11.63l-0.11 0 0 17.44 -4.69 0 0 -42.11 4.69 0 0 5.07 0.11 0c2.31,-3.84 5.69,-5.75 10.13,-5.75 3.78,0 6.72,1.28 8.84,3.87 2.12,2.58 3.18,6.03 3.18,10.38 0,4.83 -1.2,8.69 -3.58,11.59 -2.38,2.9 -5.65,4.35 -9.78,4.35 -3.8,0 -6.72,-1.61 -8.78,-4.84z"/>
  <path class="fil7" d="M2139.93 1954.77c-0.82,-0.62 -2,-0.93 -3.55,-0.93 -2,0 -3.67,0.93 -5.02,2.79 -1.35,1.85 -2.02,4.39 -2.02,7.6l0 14.71 -4.69 0 0 -28.85 4.69 0 0 5.95 0.12 0c0.66,-2.03 1.68,-3.61 3.06,-4.75 1.37,-1.14 2.91,-1.72 4.61,-1.72 1.22,0 2.16,0.14 2.8,0.4l0 4.8z"/>
  <path class="fil7" d="M2149.72 1978.93l-4.69 0 0 -28.85 4.69 0 0 28.85zm-2.29 -36.17c-0.84,0 -1.56,-0.28 -2.15,-0.85 -0.59,-0.56 -0.89,-1.27 -0.89,-2.14 0,-0.87 0.3,-1.58 0.89,-2.16 0.59,-0.57 1.31,-0.86 2.15,-0.86 0.86,0 1.59,0.29 2.18,0.86 0.61,0.57 0.9,1.29 0.9,2.16 0,0.83 -0.3,1.53 -0.9,2.11 -0.6,0.58 -1.33,0.87 -2.18,0.87z"/>
  <path class="fil7" d="M2183.54 1978.94l-4.69 0 0 -16.45c0,-6.13 -2.27,-9.19 -6.81,-9.19 -2.35,0 -4.29,0.87 -5.83,2.61 -1.53,1.73 -2.31,3.93 -2.31,6.58l0 16.45 -4.69 0 0 -28.85 4.69 0 0 4.79 0.12 0c2.21,-3.65 5.41,-5.46 9.61,-5.46 3.2,0 5.65,1.02 7.35,3.06 1.69,2.04 2.55,4.98 2.55,8.83l0 17.64z"/>
  <path class="fil7" d="M2205.97 1978.65c-1.11,0.6 -2.56,0.9 -4.37,0.9 -5.14,0 -7.7,-2.81 -7.7,-8.45l0 -17.08 -5.03 0 0 -3.94 5.03 0 0 -7.04 4.69 -1.5 0 8.54 7.38 0 0 3.94 -7.38 0 0 16.26c0,1.93 0.33,3.32 1,4.14 0.67,0.82 1.77,1.23 3.31,1.23 1.18,0 2.2,-0.31 3.07,-0.96l0 3.95z"/>
  <path class="fil7" d="M2213.87 1979.55c-0.89,0 -1.64,-0.31 -2.26,-0.92 -0.62,-0.62 -0.92,-1.37 -0.92,-2.23 0,-0.86 0.3,-1.61 0.92,-2.24 0.62,-0.63 1.37,-0.94 2.26,-0.94 0.89,0 1.66,0.31 2.29,0.94 0.63,0.63 0.95,1.38 0.95,2.24 0,0.87 -0.32,1.61 -0.95,2.23 -0.63,0.61 -1.39,0.92 -2.29,0.92z"/>
  <path class="fil7" d="M2229.63 1978.93l-4.69 0 0 -28.85 4.69 0 0 28.85zm-2.29 -36.17c-0.84,0 -1.57,-0.28 -2.15,-0.85 -0.59,-0.56 -0.89,-1.27 -0.89,-2.14 0,-0.87 0.29,-1.58 0.89,-2.16 0.59,-0.57 1.31,-0.86 2.15,-0.86 0.85,0 1.59,0.29 2.19,0.86 0.6,0.57 0.9,1.29 0.9,2.16 0,0.83 -0.3,1.53 -0.9,2.11 -0.61,0.58 -1.34,0.87 -2.19,0.87z"/>
  <path class="fil7" d="M2263.45 1978.94l-4.69 0 0 -16.45c0,-6.13 -2.27,-9.19 -6.81,-9.19 -2.35,0 -4.3,0.87 -5.83,2.61 -1.53,1.73 -2.3,3.93 -2.3,6.58l0 16.45 -4.7 0 0 -28.85 4.7 0 0 4.79 0.11 0c2.21,-3.65 5.42,-5.46 9.61,-5.46 3.2,0 5.65,1.02 7.35,3.06 1.69,2.04 2.55,4.98 2.55,8.83l0 17.64z"/>
  <path class="fil7" d="M2292.6 1965.89l0 -4.25c0,-2.33 -0.78,-4.3 -2.34,-5.92 -1.57,-1.61 -3.55,-2.43 -5.95,-2.43 -2.87,0 -5.12,1.04 -6.75,3.1 -1.64,2.07 -2.47,4.92 -2.47,8.56 0,3.33 0.79,5.95 2.36,7.88 1.57,1.92 3.69,2.89 6.33,2.89 2.62,0 4.74,-0.93 6.37,-2.79 1.64,-1.85 2.45,-4.21 2.45,-7.04zm4.69 13.04l-4.69 0 0 -4.9 -0.11 0c-2.17,3.72 -5.54,5.58 -10.07,5.58 -3.67,0 -6.62,-1.29 -8.82,-3.87 -2.2,-2.58 -3.3,-6.1 -3.3,-10.55 0,-4.77 1.22,-8.6 3.66,-11.46 2.44,-2.87 5.69,-4.31 9.76,-4.31 4.02,0 6.95,1.56 8.78,4.67l0.11 0 0 -17.86 4.69 0 0 42.71z"/>
  <path class="fil7" d="M2330.22 1951.78c-2.36,0 -4.28,1.11 -5.74,3.32 -1.46,2.22 -2.19,4.97 -2.19,8.26 0,2.21 0.48,3.97 1.46,5.24 0.99,1.28 2.31,1.91 3.95,1.91 2.36,0 4.23,-1.16 5.61,-3.47 1.38,-2.32 2.08,-5.39 2.08,-9.23 0,-4.01 -1.73,-6.03 -5.18,-6.03zm5.11 15.33l-0.13 0c-1.4,4.47 -4.13,6.71 -8.22,6.71 -2.61,0 -4.71,-0.96 -6.3,-2.85 -1.59,-1.9 -2.39,-4.45 -2.39,-7.66 0,-4.24 1.1,-7.77 3.3,-10.58 2.2,-2.8 5.11,-4.21 8.69,-4.21 1.37,0 2.6,0.35 3.67,1.04 1.08,0.7 1.77,1.57 2.08,2.62l0.11 0c0.04,-0.52 0.15,-1.6 0.3,-3.23l3.58 0c-0.9,10.35 -1.35,15.61 -1.35,15.8 0,3.89 1.13,5.83 3.4,5.83 2.07,0 3.78,-1.09 5.15,-3.29 1.36,-2.2 2.04,-5.04 2.04,-8.54 0,-5.16 -1.66,-9.37 -4.98,-12.65 -3.31,-3.26 -7.91,-4.9 -13.78,-4.9 -5.68,0 -10.35,1.95 -14.06,5.86 -3.7,3.91 -5.55,8.79 -5.55,14.65 0,5.77 1.76,10.43 5.28,13.96 3.52,3.54 8.26,5.31 14.23,5.31 4.71,0 8.73,-0.77 12.07,-2.31l0 3.49c-3.29,1.39 -7.41,2.09 -12.35,2.09 -6.96,0 -12.54,-2.06 -16.78,-6.18 -4.25,-4.12 -6.37,-9.52 -6.37,-16.18 0,-6.87 2.23,-12.57 6.67,-17.1 4.46,-4.53 10.14,-6.79 17.08,-6.79 6.48,0 11.85,1.9 16.11,5.68 4.24,3.8 6.38,8.75 6.38,14.85 0,4.47 -1.13,8.13 -3.37,11 -2.23,2.87 -4.97,4.3 -8.19,4.3 -4.18,0 -6.28,-2.24 -6.3,-6.71z"/>
  <path class="fil7" d="M2383.07 1965.89l0 -4.25c0,-2.3 -0.79,-4.26 -2.36,-5.89 -1.57,-1.63 -3.53,-2.45 -5.89,-2.45 -2.9,0 -5.17,1.04 -6.8,3.11 -1.64,2.09 -2.47,4.98 -2.47,8.72 0,3.21 0.79,5.78 2.36,7.71 1.57,1.92 3.66,2.89 6.26,2.89 2.63,0 4.77,-0.92 6.41,-2.76 1.66,-1.84 2.48,-4.21 2.48,-7.07zm4.69 10.73c0,10.59 -5.15,15.89 -15.44,15.89 -3.63,0 -6.79,-0.67 -9.5,-2.03l0 -4.62c3.29,1.81 6.44,2.7 9.43,2.7 7.21,0 10.82,-3.77 10.82,-11.32l0 -3.16 -0.11 0c-2.23,3.67 -5.59,5.52 -10.07,5.52 -3.64,0 -6.58,-1.28 -8.8,-3.84 -2.22,-2.56 -3.33,-6.01 -3.33,-10.33 0,-4.9 1.2,-8.79 3.6,-11.68 2.39,-2.89 5.66,-4.34 9.83,-4.34 3.94,0 6.87,1.56 8.78,4.67l0.11 0 0 -4 4.69 0 0 26.53z"/>
  <path class="fil7" d="M2438.86 1978.94l-4.69 0 0 -16.56c0,-3.19 -0.51,-5.5 -1.51,-6.93 -1,-1.43 -2.68,-2.14 -5.05,-2.14 -2.01,0 -3.71,0.9 -5.11,2.71 -1.4,1.8 -2.1,3.97 -2.1,6.48l0 16.45 -4.7 0 0 -17.14c0,-5.67 -2.22,-8.5 -6.66,-8.5 -2.07,0 -3.76,0.85 -5.1,2.55 -1.33,1.7 -2,3.91 -2,6.64l0 16.45 -4.69 0 0 -28.85 4.69 0 0 4.57 0.12 0c2.07,-3.49 5.11,-5.24 9.1,-5.24 2.01,0 3.75,0.55 5.24,1.64 1.48,1.1 2.5,2.54 3.06,4.33 2.18,-3.98 5.41,-5.97 9.73,-5.97 6.44,0 9.67,3.92 9.67,11.75l0 17.78z"/>
  <path class="fil7" d="M2464.01 1964.34l-7.07 0.96c-2.19,0.3 -3.82,0.83 -4.93,1.59 -1.1,0.76 -1.65,2.1 -1.65,4.03 0,1.42 0.51,2.56 1.53,3.46 1.02,0.89 2.38,1.34 4.07,1.34 2.34,0 4.26,-0.81 5.76,-2.41 1.52,-1.61 2.29,-3.64 2.29,-6.1l0 -2.87zm4.69 14.6l-4.69 0 0 -4.5 -0.12 0c-2.04,3.45 -5.05,5.18 -9.01,5.18 -2.92,0 -5.21,-0.76 -6.86,-2.28 -1.64,-1.52 -2.47,-3.53 -2.47,-6.05 0,-5.39 3.22,-8.53 9.67,-9.41l8.79 -1.21c0,-4.91 -2.02,-7.36 -6.05,-7.36 -3.52,0 -6.7,1.18 -9.55,3.55l0 -4.74c2.88,-1.8 6.2,-2.7 9.95,-2.7 6.9,0 10.33,3.59 10.33,10.77l0 18.76z"/>
  <path class="fil7" d="M2482.23 1978.93l-4.69 0 0 -28.85 4.69 0 0 28.85zm-2.29 -36.17c-0.84,0 -1.55,-0.28 -2.14,-0.85 -0.59,-0.56 -0.9,-1.27 -0.9,-2.14 0,-0.87 0.31,-1.58 0.9,-2.16 0.59,-0.57 1.3,-0.86 2.14,-0.86 0.87,0 1.59,0.29 2.19,0.86 0.6,0.57 0.91,1.29 0.91,2.16 0,0.83 -0.31,1.53 -0.91,2.11 -0.6,0.58 -1.32,0.87 -2.19,0.87z"/>
  <polygon class="fil7" points="2496.41,1978.93 2491.72,1978.93 2491.72,1936.22 2496.41,1936.22 "/>
  <path class="fil7" d="M2507.55 1979.55c-0.89,0 -1.63,-0.31 -2.25,-0.92 -0.62,-0.62 -0.92,-1.37 -0.92,-2.23 0,-0.86 0.3,-1.61 0.92,-2.24 0.62,-0.63 1.37,-0.94 2.25,-0.94 0.89,0 1.66,0.31 2.29,0.94 0.63,0.63 0.95,1.38 0.95,2.24 0,0.87 -0.32,1.61 -0.95,2.23 -0.62,0.61 -1.39,0.92 -2.29,0.92z"/>
  <path class="fil7" d="M2538.59 1977.61c-2.26,1.33 -4.92,2 -8.02,2 -4.17,0 -7.55,-1.33 -10.11,-4.01 -2.56,-2.68 -3.86,-6.14 -3.86,-10.42 0,-4.74 1.38,-8.56 4.15,-11.44 2.77,-2.88 6.46,-4.33 11.07,-4.33 2.57,0 4.85,0.47 6.81,1.41l0 4.73c-2.17,-1.5 -4.5,-2.25 -6.97,-2.25 -3,0 -5.46,1.06 -7.37,3.17 -1.92,2.11 -2.88,4.89 -2.88,8.32 0,3.38 0.91,6.05 2.71,8.01 1.81,1.95 4.21,2.93 7.25,2.93 2.55,0 4.96,-0.84 7.21,-2.51l0 4.4z"/>
  <path class="fil7" d="M2558.27 1953.3c-3.01,0 -5.39,1.01 -7.15,3.03 -1.75,2.01 -2.64,4.8 -2.64,8.35 0,3.41 0.9,6.11 2.67,8.09 1.77,1.97 4.15,2.96 7.12,2.96 3.04,0 5.37,-0.97 7,-2.91 1.63,-1.93 2.45,-4.68 2.45,-8.25 0,-3.61 -0.81,-6.39 -2.45,-8.34 -1.63,-1.96 -3.96,-2.93 -7,-2.93zm-0.34 26.31c-4.34,0 -7.79,-1.34 -10.37,-4.04 -2.58,-2.7 -3.88,-6.27 -3.88,-10.72 0,-4.84 1.35,-8.63 4.04,-11.35 2.69,-2.72 6.32,-4.09 10.9,-4.09 4.36,0 7.78,1.33 10.23,3.97 2.45,2.65 3.67,6.31 3.67,11.02 0,4.6 -1.31,8.28 -3.96,11.05 -2.64,2.77 -6.18,4.15 -10.62,4.15z"/>
  <path class="fil7" d="M2621.62 1978.94l-4.69 0 0 -16.56c0,-3.19 -0.51,-5.5 -1.51,-6.93 -1,-1.43 -2.68,-2.14 -5.04,-2.14 -2.01,0 -3.72,0.9 -5.11,2.71 -1.4,1.8 -2.1,3.97 -2.1,6.48l0 16.45 -4.7 0 0 -17.14c0,-5.67 -2.21,-8.5 -6.66,-8.5 -2.07,0 -3.76,0.85 -5.1,2.55 -1.34,1.7 -2,3.91 -2,6.64l0 16.45 -4.69 0 0 -28.85 4.69 0 0 4.57 0.12 0c2.07,-3.49 5.11,-5.24 9.09,-5.24 2,0 3.75,0.55 5.24,1.64 1.48,1.1 2.5,2.54 3.06,4.33 2.18,-3.98 5.41,-5.97 9.73,-5.97 6.44,0 9.67,3.92 9.67,11.75l0 17.78z"/>
  <path class="fil8" d="M1972.42 1958.13c0.54,17.1 -13.1,31.39 -30.47,31.92 -17.37,0.53 -31.88,-12.9 -32.42,-30.01 -0.54,-17.1 13.1,-31.39 30.47,-31.92 17.37,-0.53 31.88,12.9 32.42,30.01z"/>
  <path class="fil9" d="M1942.41 1960.37l16.39 -10.54 0 -1.38c0,-1.81 -1.49,-3.28 -3.33,-3.28l-28.97 0c-1.84,0 -3.33,1.46 -3.33,3.28l0 1.38 16.38 10.54c0.87,0.56 1.99,0.56 2.87,0z"/>
  <path class="fil9" d="M1923.16 1969.73c0,1.81 1.49,3.28 3.33,3.28l28.98 0c1.84,0 3.33,-1.47 3.33,-3.28l0 -0.76 -10.89 -10.81 -4.87 3.13c-0.63,0.41 -1.34,0.6 -2.05,0.6 -0.72,0 -1.43,-0.2 -2.05,-0.6l-4.87 -3.13 -10.89 10.81 0 0.76z"/>
  <polygon class="fil9" points="1933.08,1957.55 1923.16,1951.16 1923.16,1967.39 "/>
  <polygon class="fil9" points="1958.79,1967.39 1958.79,1951.16 1948.87,1957.55 "/>
  <path class="fil7" d="M1447.21 1959.02c0,-11.49 -2.77,-17.24 -8.32,-17.24 -5.85,0 -8.78,5.85 -8.78,17.54 0,10.92 2.87,16.38 8.62,16.38 5.66,0 8.49,-5.56 8.49,-16.68zm4.81 -0.45c0,3.38 -0.31,6.38 -0.93,8.98 -0.62,2.62 -1.52,4.82 -2.69,6.61 -1.18,1.79 -2.62,3.16 -4.32,4.08 -1.71,0.93 -3.65,1.39 -5.82,1.39 -2.06,0 -3.9,-0.44 -5.51,-1.33 -1.61,-0.89 -2.97,-2.19 -4.08,-3.9 -1.11,-1.71 -1.94,-3.81 -2.52,-6.3 -0.57,-2.49 -0.86,-5.34 -0.86,-8.55 0,-3.53 0.3,-6.65 0.9,-9.35 0.6,-2.7 1.48,-4.98 2.64,-6.8 1.16,-1.83 2.61,-3.21 4.34,-4.14 1.72,-0.93 3.7,-1.4 5.93,-1.4 8.6,0 12.9,6.9 12.9,20.7z"/>
  <path class="fil7" d="M1463.55 1948.54c0,0.96 0.18,1.85 0.53,2.66 0.35,0.82 0.84,1.53 1.46,2.14 0.62,0.6 1.35,1.09 2.16,1.44 0.82,0.35 1.7,0.52 2.63,0.52 0.94,0 1.82,-0.18 2.65,-0.53 0.83,-0.36 1.55,-0.84 2.16,-1.45 0.61,-0.61 1.1,-1.34 1.46,-2.14 0.37,-0.82 0.54,-1.7 0.54,-2.64 0,-0.98 -0.17,-1.88 -0.53,-2.7 -0.35,-0.83 -0.83,-1.54 -1.44,-2.14 -0.61,-0.6 -1.33,-1.08 -2.16,-1.42 -0.83,-0.35 -1.72,-0.52 -2.68,-0.52 -1.01,0 -1.93,0.18 -2.76,0.53 -0.83,0.36 -1.54,0.84 -2.14,1.46 -0.6,0.6 -1.06,1.33 -1.38,2.15 -0.32,0.82 -0.49,1.71 -0.49,2.65zm-1.46 18.73c0,1.27 0.2,2.4 0.59,3.42 0.39,1.01 0.94,1.87 1.66,2.59 0.71,0.71 1.58,1.26 2.6,1.64 1.01,0.39 2.14,0.58 3.38,0.58 1.2,0 2.31,-0.19 3.32,-0.59 1.01,-0.39 1.88,-0.94 2.62,-1.66 0.73,-0.71 1.3,-1.58 1.71,-2.6 0.41,-1.01 0.62,-2.14 0.62,-3.38 0,-1.12 -0.2,-2.17 -0.59,-3.16 -0.39,-0.98 -0.95,-1.86 -1.68,-2.6 -0.72,-0.75 -1.59,-1.34 -2.6,-1.78 -1.01,-0.43 -2.15,-0.65 -3.41,-0.65 -1.18,0 -2.27,0.2 -3.27,0.61 -1,0.4 -1.87,0.97 -2.6,1.69 -0.73,0.72 -1.31,1.59 -1.73,2.59 -0.42,1 -0.63,2.12 -0.63,3.3zm-5.09 0.39c0,-1.06 0.17,-2.14 0.52,-3.21 0.34,-1.08 0.83,-2.09 1.47,-3.04 0.64,-0.93 1.43,-1.79 2.38,-2.56 0.94,-0.76 2.02,-1.38 3.22,-1.83 -1.77,-0.97 -3.19,-2.23 -4.23,-3.76 -1.05,-1.53 -1.57,-3.23 -1.57,-5.09 0,-1.49 0.28,-2.86 0.87,-4.11 0.58,-1.26 1.39,-2.35 2.42,-3.27 1.03,-0.92 2.25,-1.64 3.66,-2.15 1.41,-0.52 2.94,-0.78 4.58,-0.78 1.66,0 3.19,0.26 4.61,0.79 1.41,0.53 2.63,1.25 3.66,2.17 1.03,0.93 1.83,2.02 2.4,3.28 0.57,1.25 0.86,2.61 0.86,4.08 0,1.85 -0.53,3.56 -1.57,5.09 -1.05,1.53 -2.44,2.79 -4.18,3.76 1.18,0.45 2.24,1.06 3.17,1.83 0.93,0.77 1.72,1.63 2.36,2.56 0.64,0.95 1.13,1.96 1.47,3.04 0.34,1.07 0.52,2.15 0.52,3.21 0,1.77 -0.33,3.39 -0.97,4.85 -0.65,1.46 -1.56,2.72 -2.73,3.75 -1.17,1.05 -2.58,1.86 -4.2,2.44 -1.63,0.59 -3.43,0.88 -5.39,0.88 -1.95,0 -3.73,-0.29 -5.35,-0.88 -1.62,-0.58 -3.02,-1.4 -4.2,-2.44 -1.18,-1.03 -2.1,-2.29 -2.77,-3.75 -0.65,-1.47 -0.98,-3.08 -0.98,-4.85z"/>
  <path class="fil7" d="M1509.66 1952.17c0,-1.55 -0.2,-2.97 -0.62,-4.25 -0.41,-1.28 -0.97,-2.37 -1.7,-3.29 -0.73,-0.9 -1.59,-1.61 -2.59,-2.11 -1,-0.49 -2.1,-0.74 -3.28,-0.74 -1.13,0 -2.18,0.22 -3.15,0.66 -0.98,0.44 -1.82,1.06 -2.53,1.86 -0.72,0.8 -1.28,1.75 -1.69,2.85 -0.41,1.1 -0.61,2.29 -0.61,3.59 0,1.42 0.2,2.7 0.59,3.83 0.39,1.13 0.95,2.08 1.68,2.86 0.72,0.78 1.6,1.38 2.62,1.79 1.02,0.41 2.15,0.62 3.39,0.62 1.09,0 2.11,-0.2 3.08,-0.61 0.96,-0.41 1.8,-0.95 2.52,-1.64 0.71,-0.68 1.27,-1.49 1.68,-2.42 0.41,-0.94 0.62,-1.93 0.62,-3.01zm5.07 4.14c0,3.7 -0.38,6.99 -1.12,9.87 -0.74,2.89 -1.83,5.33 -3.26,7.33 -1.43,2 -3.17,3.52 -5.23,4.56 -2.07,1.03 -4.41,1.57 -7.04,1.57 -2.71,0 -5.09,-0.47 -7.15,-1.41l0 -4.42c2.27,1.25 4.69,1.88 7.27,1.88 1.85,0 3.51,-0.38 4.96,-1.13 1.46,-0.75 2.69,-1.85 3.71,-3.28 1.01,-1.44 1.79,-3.21 2.31,-5.31 0.54,-2.11 0.8,-4.52 0.8,-7.24l-0.11 0c-1.75,3.48 -4.8,5.22 -9.15,5.22 -1.75,0 -3.37,-0.32 -4.83,-0.92 -1.47,-0.61 -2.73,-1.48 -3.8,-2.59 -1.07,-1.12 -1.9,-2.45 -2.49,-3.99 -0.59,-1.54 -0.89,-3.24 -0.89,-5.1 0,-1.99 0.33,-3.81 0.99,-5.46 0.66,-1.65 1.57,-3.07 2.75,-4.26 1.17,-1.19 2.56,-2.11 4.18,-2.77 1.61,-0.66 3.37,-0.99 5.28,-0.99 2.06,0 3.89,0.41 5.48,1.23 1.59,0.82 2.93,2.01 4.02,3.58 1.09,1.57 1.92,3.5 2.49,5.79 0.57,2.29 0.86,4.91 0.86,7.86z"/>
  <path class="fil7" d="M1545.31 1966.6c0,1.97 -0.34,3.76 -1.03,5.35 -0.69,1.59 -1.67,2.97 -2.93,4.11 -1.27,1.15 -2.8,2.03 -4.59,2.65 -1.8,0.62 -3.79,0.93 -5.98,0.93 -3.82,0 -6.65,-0.56 -8.5,-1.69l0 -4.9c2.79,1.76 5.64,2.65 8.55,2.65 1.49,0 2.83,-0.22 4.02,-0.65 1.19,-0.43 2.21,-1.03 3.04,-1.8 0.84,-0.77 1.48,-1.7 1.93,-2.79 0.45,-1.09 0.68,-2.28 0.68,-3.58 0,-2.63 -0.9,-4.69 -2.69,-6.18 -1.8,-1.49 -4.4,-2.24 -7.82,-2.24 -0.55,0 -1.13,0.01 -1.74,0.02 -0.61,0.03 -1.22,0.05 -1.83,0.08 -0.61,0.03 -1.2,0.06 -1.79,0.1 -0.58,0.04 -1.11,0.09 -1.59,0.14l1.4 -20.26 18.97 0 0 4.17 -14.91 0 -0.83 11.85c0.61,-0.03 1.26,-0.07 1.94,-0.09 0.69,-0.03 1.3,-0.04 1.84,-0.04 2.17,0 4.11,0.28 5.83,0.85 1.72,0.56 3.17,1.37 4.36,2.41 1.19,1.04 2.1,2.32 2.72,3.83 0.61,1.51 0.92,3.21 0.92,5.08z"/>
  <path class="fil7" d="M1585.94 1978.94l-4.69 0 0 -34.9c-0.36,0.35 -0.89,0.76 -1.59,1.22 -0.7,0.47 -1.48,0.92 -2.34,1.37 -0.87,0.45 -1.79,0.87 -2.75,1.26 -0.96,0.39 -1.91,0.71 -2.82,0.94l0 -4.68c1.03,-0.28 2.12,-0.66 3.27,-1.14 1.16,-0.48 2.29,-1.01 3.41,-1.6 1.12,-0.59 2.17,-1.22 3.16,-1.86 0.99,-0.65 1.85,-1.28 2.57,-1.9l1.77 0 0 41.3z"/>
  <path class="fil7" d="M1618.9 1949.13c0,-1.25 -0.2,-2.32 -0.59,-3.24 -0.39,-0.92 -0.92,-1.69 -1.6,-2.3 -0.68,-0.61 -1.48,-1.07 -2.39,-1.37 -0.92,-0.3 -1.91,-0.45 -2.97,-0.45 -0.92,0 -1.81,0.12 -2.69,0.37 -0.87,0.23 -1.73,0.58 -2.56,1.01 -0.83,0.43 -1.62,0.95 -2.4,1.55 -0.77,0.6 -1.49,1.26 -2.16,1.99l0 -4.95c1.32,-1.26 2.79,-2.22 4.42,-2.9 1.63,-0.66 3.62,-0.99 5.97,-0.99 1.68,0 3.23,0.23 4.66,0.72 1.43,0.48 2.67,1.17 3.72,2.09 1.05,0.91 1.87,2.06 2.47,3.41 0.6,1.35 0.9,2.9 0.9,4.65 0,1.59 -0.18,3.04 -0.55,4.34 -0.37,1.29 -0.93,2.51 -1.69,3.65 -0.75,1.14 -1.7,2.25 -2.84,3.3 -1.14,1.05 -2.49,2.13 -4.03,3.21 -1.93,1.35 -3.52,2.51 -4.77,3.47 -1.25,0.95 -2.24,1.86 -2.98,2.69 -0.74,0.83 -1.24,1.67 -1.54,2.5 -0.3,0.84 -0.44,1.8 -0.44,2.88l20.43 0 0 4.15 -25.32 0 0 -2c0,-1.73 0.19,-3.25 0.57,-4.56 0.38,-1.32 1.01,-2.57 1.88,-3.74 0.89,-1.19 2.03,-2.37 3.45,-3.55 1.42,-1.18 3.16,-2.53 5.22,-4 1.48,-1.06 2.73,-2.06 3.73,-3.03 1,-0.95 1.81,-1.91 2.42,-2.86 0.61,-0.96 1.04,-1.93 1.3,-2.92 0.26,-0.99 0.39,-2.03 0.39,-3.14z"/>
  <path class="fil7" d="M1657.29 1941.21c-0.63,1.07 -1.39,2.41 -2.27,4 -0.89,1.59 -1.82,3.38 -2.82,5.38 -1,1.99 -2,4.13 -3.03,6.42 -1.03,2.29 -1.99,4.66 -2.89,7.1 -0.9,2.45 -1.69,4.92 -2.36,7.43 -0.68,2.5 -1.17,4.97 -1.48,7.39l-5.04 0c0.35,-2.4 0.87,-4.86 1.59,-7.36 0.72,-2.51 1.53,-4.97 2.43,-7.38 0.91,-2.42 1.87,-4.74 2.88,-6.99 1.01,-2.22 2,-4.28 2.95,-6.16 0.96,-1.89 1.83,-3.54 2.62,-4.98 0.79,-1.44 1.42,-2.56 1.9,-3.37l-20.57 0 0 -4.17 26.09 0 0 2.68z"/>
  <path class="fil7" d="M1683.64 1952.17c0,-1.55 -0.2,-2.97 -0.62,-4.25 -0.41,-1.28 -0.97,-2.37 -1.7,-3.29 -0.72,-0.9 -1.58,-1.61 -2.59,-2.11 -1,-0.49 -2.1,-0.74 -3.27,-0.74 -1.13,0 -2.18,0.22 -3.15,0.66 -0.98,0.44 -1.82,1.06 -2.53,1.86 -0.72,0.8 -1.28,1.75 -1.69,2.85 -0.41,1.1 -0.61,2.29 -0.61,3.59 0,1.42 0.19,2.7 0.59,3.83 0.39,1.13 0.95,2.08 1.68,2.86 0.72,0.78 1.59,1.38 2.62,1.79 1.02,0.41 2.14,0.62 3.39,0.62 1.09,0 2.11,-0.2 3.08,-0.61 0.96,-0.41 1.8,-0.95 2.52,-1.64 0.71,-0.68 1.27,-1.49 1.68,-2.42 0.41,-0.94 0.62,-1.93 0.62,-3.01zm5.07 4.14c0,3.7 -0.38,6.99 -1.12,9.87 -0.74,2.89 -1.83,5.33 -3.26,7.33 -1.43,2 -3.17,3.52 -5.24,4.56 -2.06,1.03 -4.41,1.57 -7.04,1.57 -2.71,0 -5.09,-0.47 -7.15,-1.41l0 -4.42c2.27,1.25 4.69,1.88 7.27,1.88 1.85,0 3.51,-0.38 4.96,-1.13 1.46,-0.75 2.69,-1.85 3.71,-3.28 1.01,-1.44 1.79,-3.21 2.31,-5.31 0.54,-2.11 0.8,-4.52 0.8,-7.24l-0.11 0c-1.75,3.48 -4.8,5.22 -9.15,5.22 -1.75,0 -3.37,-0.32 -4.83,-0.92 -1.47,-0.61 -2.74,-1.48 -3.8,-2.59 -1.07,-1.12 -1.9,-2.45 -2.49,-3.99 -0.59,-1.54 -0.89,-3.24 -0.89,-5.1 0,-1.99 0.33,-3.81 0.99,-5.46 0.66,-1.65 1.57,-3.07 2.74,-4.26 1.17,-1.19 2.57,-2.11 4.18,-2.77 1.61,-0.66 3.37,-0.99 5.28,-0.99 2.06,0 3.89,0.41 5.48,1.23 1.59,0.82 2.93,2.01 4.02,3.58 1.09,1.57 1.92,3.5 2.49,5.79 0.57,2.29 0.86,4.91 0.86,7.86z"/>
  <path class="fil7" d="M1736.52 1941.21c-0.63,1.07 -1.39,2.41 -2.27,4 -0.89,1.59 -1.82,3.38 -2.82,5.38 -1,1.99 -2,4.13 -3.03,6.42 -1.03,2.29 -1.99,4.66 -2.89,7.1 -0.9,2.45 -1.68,4.92 -2.36,7.43 -0.68,2.5 -1.17,4.97 -1.48,7.39l-5.04 0c0.35,-2.4 0.87,-4.86 1.59,-7.36 0.72,-2.51 1.53,-4.97 2.43,-7.38 0.91,-2.42 1.87,-4.74 2.88,-6.99 1.01,-2.22 2,-4.28 2.95,-6.16 0.96,-1.89 1.83,-3.54 2.62,-4.98 0.79,-1.44 1.42,-2.56 1.9,-3.37l-20.57 0 0 -4.17 26.09 0 0 2.68z"/>
  <path class="fil7" d="M1763.58 1959.02c0,-11.49 -2.77,-17.24 -8.32,-17.24 -5.85,0 -8.79,5.85 -8.79,17.54 0,10.92 2.88,16.38 8.62,16.38 5.66,0 8.5,-5.56 8.5,-16.68zm4.8 -0.45c0,3.38 -0.31,6.38 -0.92,8.98 -0.62,2.62 -1.52,4.82 -2.69,6.61 -1.17,1.79 -2.62,3.16 -4.32,4.08 -1.71,0.93 -3.65,1.39 -5.82,1.39 -2.07,0 -3.9,-0.44 -5.51,-1.33 -1.61,-0.89 -2.97,-2.19 -4.08,-3.9 -1.11,-1.71 -1.94,-3.81 -2.52,-6.3 -0.57,-2.49 -0.86,-5.34 -0.86,-8.55 0,-3.53 0.3,-6.65 0.9,-9.35 0.6,-2.7 1.48,-4.98 2.65,-6.8 1.16,-1.83 2.61,-3.21 4.34,-4.14 1.72,-0.93 3.7,-1.4 5.94,-1.4 8.6,0 12.9,6.9 12.9,20.7z"/>
  <path class="fil7" d="M1791.51 1978.94l-4.7 0 0 -34.9c-0.36,0.35 -0.89,0.76 -1.59,1.22 -0.7,0.47 -1.48,0.92 -2.34,1.37 -0.87,0.45 -1.79,0.87 -2.75,1.26 -0.96,0.39 -1.9,0.71 -2.82,0.94l0 -4.68c1.03,-0.28 2.12,-0.66 3.28,-1.14 1.15,-0.48 2.29,-1.01 3.4,-1.6 1.12,-0.59 2.17,-1.22 3.16,-1.86 0.99,-0.65 1.85,-1.28 2.57,-1.9l1.78 0 0 41.3z"/>
  <path class="fil7" d="M1831.27 1941.21c-0.63,1.07 -1.39,2.41 -2.27,4 -0.89,1.59 -1.82,3.38 -2.82,5.38 -1,1.99 -2,4.13 -3.03,6.42 -1.03,2.29 -1.99,4.66 -2.89,7.1 -0.9,2.45 -1.68,4.92 -2.36,7.43 -0.68,2.5 -1.17,4.97 -1.48,7.39l-5.04 0c0.35,-2.4 0.87,-4.86 1.59,-7.36 0.72,-2.51 1.53,-4.97 2.43,-7.38 0.91,-2.42 1.87,-4.74 2.88,-6.99 1.01,-2.22 2,-4.28 2.95,-6.16 0.96,-1.89 1.83,-3.54 2.62,-4.98 0.79,-1.44 1.42,-2.56 1.9,-3.37l-20.57 0 0 -4.17 26.09 0 0 2.68z"/>
  <polygon class="fil7" points="1875.22,1992.51 1870.99,1992.51 1870.99,1934.82 1875.22,1934.82 "/>
  <path class="fil10" d="M1412.88 1958.13c0.54,17.1 -13.1,31.39 -30.48,31.92 -17.36,0.53 -31.88,-12.9 -32.42,-30.01 -0.54,-17.1 13.1,-31.39 30.47,-31.92 17.37,-0.53 31.88,12.9 32.42,30.01z"/>
  <path class="fil9" d="M1394.66 1966.77c-0.51,1.42 -2.55,2.6 -4.16,2.95 -1.11,0.24 -2.56,0.42 -7.44,-1.57 -6.23,-2.55 -10.25,-8.78 -10.56,-9.19 -0.3,-0.41 -2.52,-3.3 -2.52,-6.3 0,-3 1.54,-4.46 2.17,-5.08 0.51,-0.51 1.36,-0.75 2.17,-0.75l0.71 0.02c0.63,0.02 0.94,0.05 1.35,1.03 0.51,1.22 1.75,4.22 1.9,4.52l0.09 1.14 -0.69 0.96 -0.92 1.01c-0.29,0.33 -0.61,0.68 -0.25,1.3 0.36,0.6 1.61,2.6 3.44,4.21 2.36,2.08 4.29,2.74 4.97,3.03 0.52,0.2 1.13,0.15 1.5,-0.24 0.48,-0.5 1.06,-1.34 1.66,-2.16 0.42,-0.59 0.96,-0.66 1.52,-0.45 0.57,0.2 3.6,1.67 4.23,1.98 0.62,0.31 1.03,0.45 1.19,0.71 0.15,0.26 0.15,1.47 -0.37,2.9zm-12.34 -29.5l-0.01 0c-11.7,0 -21.22,9.37 -21.22,20.89 0,4.58 1.49,8.81 4.04,12.25l-2.65 7.77 8.16 -2.57c3.35,2.19 7.36,3.45 11.67,3.45 11.7,0 21.21,-9.37 21.21,-20.89 0,-11.51 -9.51,-20.89 -21.21,-20.89z"/>
  <path class="fil7" d="M1139.02 1977.32l-9.4 0 -15.13 -19.58c-0.57,-0.73 -0.91,-1.24 -1.03,-1.49l-0.12 0 0 21.07 -7.21 0 0 -42.81 7.21 0 0 20.13 0.12 0c0.24,-0.44 0.58,-0.92 1.03,-1.46l14.58 -18.67 8.64 0 -17.07 20.54 18.37 22.27z"/>
  <path class="fil7" d="M1156.64 1951.56c-2.75,0 -4.92,0.94 -6.51,2.84 -1.6,1.89 -2.4,4.5 -2.4,7.82 0,3.2 0.81,5.72 2.43,7.57 1.61,1.85 3.78,2.76 6.48,2.76 2.77,0 4.9,-0.9 6.38,-2.72 1.49,-1.81 2.23,-4.39 2.23,-7.73 0,-3.36 -0.74,-5.96 -2.23,-7.79 -1.48,-1.83 -3.61,-2.75 -6.38,-2.75zm-0.33 26.48c-4.79,0 -8.62,-1.43 -11.48,-4.28 -2.86,-2.86 -4.29,-6.64 -4.29,-11.36 0,-5.13 1.49,-9.15 4.47,-12.03 2.99,-2.88 7,-4.33 12.05,-4.33 4.85,0 8.63,1.41 11.34,4.21 2.71,2.8 4.06,6.7 4.06,11.67 0,4.88 -1.46,8.78 -4.38,11.72 -2.92,2.93 -6.85,4.41 -11.77,4.41z"/>
  <path class="fil7" d="M1207.27 1977.32l-7.04 0 0 -17.22c0,-5.71 -2.05,-8.56 -6.15,-8.56 -2.14,0 -3.91,0.79 -5.31,2.37 -1.39,1.57 -2.09,3.58 -2.09,5.98l0 17.43 -7.07 0 0 -30.57 7.07 0 0 5.07 0.12 0c2.32,-3.86 5.68,-5.79 10.07,-5.79 3.37,0 5.95,1.07 7.73,3.23 1.78,2.16 2.67,5.28 2.67,9.36l0 18.69z"/>
  <path class="fil7" d="M1232.22 1976.99c-1.38,0.68 -3.19,1.02 -5.43,1.02 -6.02,0 -9.04,-2.86 -9.04,-8.55l0 -17.27 -5.18 0 0 -5.44 5.18 0 0 -7.07 7.04 -1.97 0 9.04 7.43 0 0 5.44 -7.43 0 0 15.28c0,1.81 0.33,3.1 1,3.88 0.67,0.78 1.78,1.17 3.34,1.17 1.19,0 2.22,-0.34 3.09,-1.02l0 5.49z"/>
  <path class="fil7" d="M1255.32 1962.3l-6.52 0.9c-2.02,0.26 -3.54,0.75 -4.56,1.45 -1.02,0.7 -1.53,1.94 -1.53,3.71 0,1.29 0.47,2.35 1.41,3.18 0.94,0.83 2.2,1.24 3.77,1.24 2.14,0 3.91,-0.74 5.32,-2.22 1.4,-1.49 2.1,-3.35 2.1,-5.6l0 -2.66zm6.79 15.01l-6.82 0 0 -4.77 -0.13 0c-2.14,3.66 -5.28,5.49 -9.43,5.49 -3.05,0 -5.44,-0.82 -7.17,-2.45 -1.73,-1.62 -2.59,-3.78 -2.59,-6.48 0,-5.76 3.38,-9.13 10.13,-10.08l9.22 -1.29c0,-4.35 -2.1,-6.53 -6.31,-6.53 -3.7,0 -7.03,1.25 -10,3.75l0 -6.06c3.28,-1.91 7.05,-2.86 11.34,-2.86 7.84,0 11.76,3.8 11.76,11.4l0 19.87z"/>
  <polygon class="fil7" points="1298.85,1977.32 1289.94,1977.32 1277.87,1962.63 1277.75,1962.63 1277.75,1977.32 1270.69,1977.32 1270.69,1932.07 1277.75,1932.07 1277.75,1960.75 1277.87,1960.75 1289.27,1946.75 1297.73,1946.75 1284.9,1961.5 "/>
  <path class="fil11" d="M2912.26 1958.5c0.54,17.14 -13.14,31.45 -30.54,31.99 -17.39,0.53 -31.94,-12.93 -32.47,-30.07 -0.54,-17.13 13.13,-31.45 30.53,-31.98 17.41,-0.53 31.96,12.93 32.49,30.07z"/>
  <path class="fil9" d="M2875.87 1967.19l-0.49 -15.15 5.35 2.93 7.71 4.24 -12.58 7.97zm24.73 -15.43c-0.34,-1.82 -0.82,-3.13 -1.43,-4.08 -1.18,-1.92 -2.39,-2.24 -4.87,-2.3 -1.73,-0.07 -5.29,-0.02 -9.13,0.07 -1.61,0.04 -3.27,0.09 -4.86,0.13 -5.35,0.17 -11.53,0.42 -13.98,0.66l-0.98 0.1c-1.81,0.26 -2.82,0.78 -3.73,2.49 -0.83,1.5 -1.3,3.8 -1.4,7.39 -0.04,1.14 -0.03,2.44 0.02,3.86l0 0.02c0.09,2.94 0.32,5.24 0.65,7.05 0.35,1.82 0.84,3.13 1.44,4.08 1.18,1.91 2.41,2.22 4.87,2.32 0.78,0.02 1.92,0.02 3.3,0.01 2.97,-0.02 7.03,-0.1 10.68,-0.21 5.35,-0.17 11.53,-0.44 14,-0.65 2.45,-0.24 3.65,-0.63 4.69,-2.6 1.11,-1.97 1.58,-5.37 1.4,-11.24l0 -0.02c-0.09,-2.95 -0.3,-5.26 -0.66,-7.07z"/>
  <path class="fil12" d="M2765.07 1958.5c0.54,17.22 -13.21,31.61 -30.69,32.14 -17.49,0.53 -32.1,-12.99 -32.64,-30.21 -0.54,-17.22 13.2,-31.61 30.69,-32.14 17.48,-0.53 32.11,13 32.64,30.21z"/>
  <path class="fil9" d="M2742.73 1947.23c-1,-0.39 -1.97,-0.58 -2.88,-0.58 -2.5,0 -3.75,1.33 -3.75,4l0 2.64 5.76 0 0 5.65 -5.76 0 0 19.19 -7.76 0 0 -19.19 -4.23 0 0 -5.65 4.23 0 0 -3.08c0,-2.83 0.94,-5.11 2.81,-6.84 1.88,-1.73 4.43,-2.59 7.64,-2.59 1.58,0 2.88,0.16 3.95,0.48l0 5.98z"/>
  <path class="fil13" d="M2806.84 1953.95c-1.36,0.04 -2.6,0.57 -3.55,1.4 -1.19,1.03 -1.93,2.57 -1.89,4.28 0.07,2.05 1.26,3.8 2.97,4.7 0.83,0.45 1.79,0.68 2.81,0.65 3.09,-0.09 5.52,-2.64 5.42,-5.69 -0.1,-3.06 -2.68,-5.44 -5.77,-5.34z"/>
  <path class="fil13" d="M2823.93 1965.77c-0.03,1.76 -0.29,2.97 -0.67,4.02 -0.39,1.13 -1.01,2.13 -1.82,2.98 -0.8,0.85 -1.81,1.56 -2.94,2.03 -1.05,0.44 -2.26,0.75 -4.05,0.88 -1.79,0.14 -2.36,0.18 -6.93,0.32l-1.09 0.04c-3.58,0.11 -4.19,0.08 -5.84,0.07 -1.77,-0.04 -3.01,-0.26 -4.09,-0.64 -1.13,-0.39 -2.17,-1 -3.04,-1.81 -0.88,-0.8 -1.57,-1.78 -2.03,-2.9 -0.44,-1.01 -0.78,-2.21 -0.91,-3.97 -0.13,-1.76 -0.16,-2.32 -0.31,-6.82 -0.14,-4.5 -0.15,-5.06 -0.1,-6.83 0.01,-1.77 0.27,-2.98 0.65,-4.04 0.39,-1.1 1.01,-2.14 1.84,-2.98 0.81,-0.88 1.81,-1.56 2.94,-2.01 1.04,-0.44 2.25,-0.77 4.04,-0.9 1.02,-0.07 1.66,-0.11 2.87,-0.17 0.9,-0.04 2.12,-0.08 4.06,-0.13 4.57,-0.15 5.13,-0.15 6.93,-0.11 1.79,0.02 3.01,0.27 4.1,0.64l0.3 0.12c1.01,0.37 1.94,0.96 2.72,1.7 0.89,0.79 1.58,1.77 2.05,2.88 0.44,1.02 0.77,2.22 0.89,3.98 0.14,1.76 0.17,2.32 0.31,6.82 0.14,4.49 0.13,5.06 0.12,6.82zm-17.9 -37.49c-17.49,0.54 -31.22,14.92 -30.69,32.14 0.54,17.22 15.17,30.74 32.65,30.21 17.48,-0.53 31.22,-14.93 30.69,-32.14 -0.54,-17.22 -15.16,-30.74 -32.65,-30.21z"/>
  <path class="fil13" d="M2815.77 1952.33c-1.11,0.04 -2.05,-0.83 -2.09,-1.92 -0.02,-1.1 0.85,-2.01 1.97,-2.04 1.11,-0.04 2.03,0.83 2.07,1.92 0.04,1.1 -0.84,2.01 -1.95,2.05zm-8.49 15.63c-0.83,0.03 -1.64,-0.06 -2.39,-0.25 -3.65,-0.9 -6.4,-4.11 -6.53,-7.99 -0.1,-3.36 1.77,-6.31 4.59,-7.77 1.14,-0.61 2.4,-0.96 3.78,-1 4.77,-0.15 8.76,3.55 8.91,8.24 0.15,4.69 -3.6,8.62 -8.37,8.76zm13.51 -8.9c-0.15,-4.42 -0.17,-4.95 -0.31,-6.67 -0.13,-1.62 -0.42,-2.5 -0.68,-3.07 -0.3,-0.71 -0.74,-1.34 -1.31,-1.86l-0.46 -0.39c-0.45,-0.33 -0.97,-0.61 -1.51,-0.78 -0.59,-0.21 -1.49,-0.44 -3.14,-0.47 -1.77,-0.03 -2.3,-0.03 -6.79,0.12 -1.94,0.05 -3.13,0.09 -4.04,0.13 -1.14,0.05 -1.76,0.09 -2.76,0.16 -1.63,0.13 -2.51,0.42 -3.08,0.66 -0.74,0.3 -1.37,0.74 -1.9,1.29 -0.54,0.55 -0.94,1.21 -1.2,1.94 -0.22,0.59 -0.45,1.48 -0.48,3.1 -0.03,1.73 -0.03,2.26 0.11,6.67 0.14,4.42 0.17,4.95 0.31,6.69 0.13,1.61 0.42,2.48 0.68,3.05 0.3,0.71 0.74,1.35 1.32,1.86 0.55,0.54 1.23,0.93 1.96,1.18 0.59,0.2 1.49,0.45 3.14,0.47 1.52,0.02 2.14,0.03 5.18,-0.07l1.6 -0.06c4.48,-0.13 5.02,-0.16 6.79,-0.29 1.63,-0.11 2.51,-0.42 3.08,-0.67 1.46,-0.61 2.57,-1.79 3.1,-3.23l0.17 -0.52c0.15,-0.58 0.3,-1.38 0.31,-2.58 0.03,-1.75 0.03,-2.26 -0.11,-6.68z"/>
  <path class="fil7" d="M2935.87 1958.28c0,-2.82 -0.06,-5.13 -0.23,-7.38l4.47 0 0.28 4.51 0.12 0c1.37,-2.6 4.58,-5.13 9.15,-5.13 3.83,0 9.78,2.25 9.78,11.6l0 16.28 -5.04 0 0 -15.71c0,-4.4 -1.66,-8.06 -6.4,-8.06 -3.32,0 -5.89,2.31 -6.75,5.07 -0.23,0.62 -0.34,1.46 -0.34,2.31l0 16.39 -5.04 0 0 -19.89z"/>
  <path class="fil7" d="M2985.18 1961.89c0.06,-3.16 -1.31,-8.05 -6.98,-8.05 -5.09,0 -7.32,4.62 -7.72,8.05l14.7 0zm-14.76 3.55c0.12,6.7 4.47,9.47 9.5,9.47 3.6,0 5.78,-0.62 7.66,-1.41l0.86 3.55c-1.77,0.78 -4.81,1.69 -9.21,1.69 -8.52,0 -13.62,-5.52 -13.62,-13.75 0,-8.23 4.93,-14.7 12.99,-14.7 9.04,0 11.45,7.83 11.45,12.84 0,1.01 -0.12,1.8 -0.18,2.31l-19.45 0z"/>
  <path class="fil7" d="M2999.35 1964.59c0,5.97 3.49,10.48 8.41,10.48 4.8,0 8.41,-4.45 8.41,-10.59 0,-4.62 -2.35,-10.48 -8.3,-10.48 -5.95,0 -8.52,5.41 -8.52,10.59zm21.97 -0.28c0,10.08 -7.09,14.48 -13.79,14.48 -7.49,0 -13.27,-5.41 -13.27,-14.03 0,-9.12 6.06,-14.47 13.73,-14.47 7.95,0 13.33,5.68 13.33,14.02z"/>
  <path class="fil7" d="M3032.64 1967.07c0,0.73 0.11,1.41 0.23,2.03 0.91,3.43 3.95,5.8 7.55,5.8 5.31,0 8.41,-4.28 8.41,-10.54 0,-5.46 -2.92,-10.14 -8.24,-10.14 -3.43,0 -6.64,2.42 -7.61,6.14 -0.17,0.62 -0.34,1.35 -0.34,2.03l0 4.67zm-4.98 -7.27c0,-3.49 -0.11,-6.3 -0.23,-8.89l4.52 0 0.23 4.67 0.12 0c2.05,-3.32 5.32,-5.29 9.84,-5.29 6.69,0 11.72,5.57 11.72,13.86 0,9.8 -6.06,14.64 -12.58,14.64 -3.66,0 -6.87,-1.58 -8.53,-4.28l-0.11 0 0 14.81 -4.98 0 0 -29.52z"/>
  <path class="fil7" d="M3060.19 1959.41c0,-3.21 -0.06,-5.98 -0.23,-8.51l4.41 0 0.17 5.35 0.23 0c1.25,-3.66 4.29,-5.96 7.66,-5.96 0.58,0 0.98,0.05 1.43,0.16l0 4.68c-0.52,-0.11 -1.03,-0.17 -1.72,-0.17 -3.55,0 -6.07,2.64 -6.75,6.36 -0.12,0.68 -0.24,1.46 -0.24,2.3l0 14.54 -4.98 0 0 -18.75z"/>
  <path class="fil7" d="M3079.12 1950.9l5.04 0 0 27.27 -5.04 0 0 -27.27zm5.61 -7.66c0.06,1.69 -1.2,3.04 -3.2,3.04 -1.77,0 -3.04,-1.35 -3.04,-3.04 0,-1.74 1.32,-3.1 3.15,-3.1 1.88,0 3.08,1.35 3.08,3.1z"/>
  <path class="fil7" d="M3092.5 1958.28c0,-2.82 -0.06,-5.13 -0.23,-7.38l4.47 0 0.28 4.51 0.12 0c1.37,-2.6 4.58,-5.13 9.15,-5.13 3.83,0 9.78,2.25 9.78,11.6l0 16.28 -5.04 0 0 -15.71c0,-4.4 -1.66,-8.06 -6.4,-8.06 -3.32,0 -5.89,2.31 -6.75,5.07 -0.23,0.62 -0.34,1.46 -0.34,2.31l0 16.39 -5.04 0 0 -19.89z"/>
  <path class="fil7" d="M3130.08 1943.08l0 7.82 7.2 0 0 3.78 -7.2 0 0 14.71c0,3.38 0.97,5.3 3.77,5.3 1.31,0 2.29,-0.17 2.92,-0.34l0.23 3.71c-0.98,0.39 -2.52,0.68 -4.46,0.68 -2.35,0 -4.24,-0.73 -5.44,-2.08 -1.43,-1.47 -1.94,-3.89 -1.94,-7.1l0 -14.87 -4.29 0 0 -3.78 4.29 0 0 -6.53 4.92 -1.29z"/>
  <path class="fil7" d="M3141.57 1975.24c0,-2.09 1.43,-3.55 3.43,-3.55 2,0 3.37,1.47 3.37,3.55 0,2.03 -1.32,3.55 -3.43,3.55 -2,0 -3.37,-1.52 -3.37,-3.55z"/>
  <path class="fil7" d="M3154.61 1950.9l5.04 0 0 27.27 -5.04 0 0 -27.27zm5.61 -7.66c0.06,1.69 -1.2,3.04 -3.2,3.04 -1.78,0 -3.04,-1.35 -3.04,-3.04 0,-1.74 1.31,-3.1 3.15,-3.1 1.89,0 3.09,1.35 3.09,3.1z"/>
  <path class="fil7" d="M3167.99 1958.28c0,-2.82 -0.06,-5.13 -0.23,-7.38l4.46 0 0.28 4.51 0.12 0c1.37,-2.6 4.58,-5.13 9.15,-5.13 3.83,0 9.78,2.25 9.78,11.6l0 16.28 -5.04 0 0 -15.71c0,-4.4 -1.66,-8.06 -6.41,-8.06 -3.32,0 -5.89,2.31 -6.75,5.07 -0.23,0.62 -0.34,1.46 -0.34,2.31l0 16.39 -5.04 0 0 -19.89z"/>
  <path class="fil7" d="M3218.61 1962c0,-0.62 -0.06,-1.47 -0.23,-2.09 -0.74,-3.16 -3.49,-5.75 -7.27,-5.75 -5.2,0 -8.3,4.5 -8.3,10.54 0,5.52 2.75,10.08 8.18,10.08 3.37,0 6.47,-2.2 7.38,-5.92 0.17,-0.68 0.23,-1.35 0.23,-2.14l0 -4.73zm5.03 -23.83l0 32.95c0,2.42 0.06,5.18 0.23,7.04l-4.52 0 -0.23 -4.73 -0.11 0c-1.54,3.04 -4.92,5.35 -9.44,5.35 -6.69,0 -11.84,-5.57 -11.84,-13.86 -0.06,-9.07 5.66,-14.64 12.42,-14.64 4.23,0 7.09,1.97 8.36,4.17l0.11 0 0 -16.28 5.03 0z"/>
 </g>
</svg>
