<?xml version="1.0" encoding="UTF-8"?>
<!DOCTYPE svg PUBLIC "-//W3C//DTD SVG 1.1//EN" "http://www.w3.org/Graphics/SVG/1.1/DTD/svg11.dtd">
<!-- Creator: CorelDRAW 2020 (64-Bit) -->
<svg xmlns="http://www.w3.org/2000/svg" xml:space="preserve" width="13.5246in" height="8.79784in" version="1.1" style="shape-rendering:geometricPrecision; text-rendering:geometricPrecision; image-rendering:optimizeQuality; fill-rule:evenodd; clip-rule:evenodd"
viewBox="0 0 13926.11 9058.99"
 xmlns:xlink="http://www.w3.org/1999/xlink"
 xmlns:xodm="http://www.corel.com/coreldraw/odm/2003">
 <defs>
  <style type="text/css">
   <![CDATA[
    .str0 {stroke:white;stroke-width:114.41;stroke-miterlimit:10}
    .fil2 {fill:#07063A;fill-rule:nonzero}
    .fil4 {fill:#111111;fill-rule:nonzero}
    .fil0 {fill:#1AB3FF;fill-rule:nonzero}
    .fil1 {fill:#FF017E;fill-rule:nonzero}
    .fil3 {fill:#FFE62E;fill-rule:nonzero}
   ]]>
  </style>
 </defs>
 <g id="Layer_x0020_1">
  <metadata id="CorelCorpID_0Corel-Layer"/>
  <path class="fil0 str0" d="M12260.98 1534.37c158.17,-158.19 414.62,-158.19 572.8,0 158.17,158.19 158.17,414.63 0,572.8 -158.19,158.19 -414.63,158.19 -572.8,0 -158.19,-158.17 -158.19,-414.62 0,-572.8z"/>
  <path class="fil1 str0" d="M12260.98 617.88c158.17,-158.19 414.62,-158.19 572.8,0 158.17,158.17 158.17,414.63 0,572.8 -158.19,158.17 -414.63,158.17 -572.8,0 -158.19,-158.17 -158.19,-414.63 0,-572.8z"/>
  <path class="fil2 str0" d="M8662.73 3297.47c0.1,960.79 779,1739.62 1739.81,1739.62 960.81,0 1739.71,-778.83 1739.8,-1739.62l-3479.61 0z"/>
  <path class="fil1 str0" d="M11030.16 2739.68c-0.07,-592.14 -480.09,-1072.14 -1072.26,-1072.14 -592.16,0 -1072.19,480 -1072.25,1072.14l2144.5 0z"/>
  <path class="fil3 str0" d="M13177.47 617.88c158.19,-158.19 414.62,-158.19 572.81,0 158.17,158.17 158.17,414.63 0,572.8 -158.19,158.17 -414.62,158.17 -572.81,0 -158.18,-158.17 -158.18,-414.63 0,-572.8z"/>
  <path class="fil4 str0" d="M13177.47 1534.37c158.19,-158.19 414.62,-158.19 572.81,0 158.17,158.19 158.17,414.63 0,572.8 -158.19,158.19 -414.62,158.19 -572.81,0 -158.18,-158.17 -158.18,-414.62 0,-572.8z"/>
  <path class="fil2 str0" d="M541.96 3499.04l447.45 0c33.69,0 58.91,30.86 52.21,63.87l-14.86 73.22c-9.73,47.95 45.06,82.54 84.15,53.11 96.75,-72.84 188.69,-127.73 275.81,-164.65 120.59,-51.1 247.64,-76.65 381.2,-76.65 178.48,0 319.16,51.1 422.04,153.29 102.87,102.2 154.32,237.8 154.32,406.74 0,76.32 -22.48,220.74 -67.44,433.29l-246.67 1185.95c-5.13,24.73 -26.91,42.43 -52.16,42.43l-477.7 0c-33.82,0 -59.08,-31.08 -52.16,-64.17l244.12 -1168.29c38.14,-183.96 57.23,-293.62 57.23,-329.07 0,-74.92 -22.15,-133.88 -66.41,-176.81 -44.3,-42.92 -105.97,-64.37 -184.98,-64.37 -85.85,0 -181.22,36.11 -286.14,108.32 -104.94,72.25 -187.37,167.6 -247.33,286.15 -43.63,84.51 -92.67,256.86 -147.16,517.1l-177.13 848.75c-5.15,24.7 -26.93,42.39 -52.17,42.39l-477.72 0c-33.81,0 -59.08,-31.09 -52.15,-64.17l431.48 -2064.07c5.16,-24.68 26.93,-42.37 52.16,-42.37z"/>
  <path class="fil2 str0" d="M4161.11 4408.57c29.23,0 52.92,-23.69 53.3,-52.93 0.03,-2.25 0.03,-4.35 0.03,-6.34 0,-160.77 -36.1,-281.36 -108.32,-361.78 -72.24,-80.39 -168.97,-120.59 -290.23,-120.59 -121.29,0 -229.93,45.66 -325.99,136.93 -83.88,79.72 -144.13,192.67 -180.74,338.84 -8.37,33.44 17.42,65.86 51.88,65.86l800.06 0zm503.15 357.69l-1377.59 0c-29.22,0 -53.24,23.55 -53.27,52.77l0 0.37c0,144.44 41.19,260.95 123.63,349.5 82.43,88.58 182.94,132.86 301.48,132.86 184.7,0 330.82,-90.6 438.42,-271.82 11.04,-18.61 32.75,-28.12 54.07,-24.54l416.45 69.67c36.04,6.04 55.74,45.95 38.18,77.98 -97.83,178.57 -223.14,314.99 -375.83,409.29 -171.02,105.63 -362.81,158.41 -575.38,158.41 -291.59,0 -528.67,-92.3 -711.27,-276.96 -182.62,-184.61 -273.88,-428.88 -273.88,-732.73 0,-297.04 82.42,-561.36 247.31,-793.03 224.83,-313.4 545.73,-470.11 962.67,-470.11 265.73,0 476.92,82.1 633.63,246.31 156.67,164.21 235.04,394.14 235.04,689.8 0,123.99 -10.44,237 -31.29,339.07 -5.12,25.03 -26.84,43.15 -52.37,43.15z"/>
  <path class="fil2 str0" d="M6679.39 4349.31c0,-138.99 -40.54,-250.38 -121.6,-334.19 -81.09,-83.81 -185.67,-125.69 -313.74,-125.69 -126.74,0 -239.15,39.19 -337.24,117.53 -98.12,78.37 -174.44,192.12 -228.92,341.32 -54.52,149.21 -81.76,286.5 -81.76,411.85 0,155.34 42.2,278.67 126.72,369.94 84.46,91.31 190.75,136.95 318.84,136.95 160.76,0 295.67,-68.8 404.69,-206.44 155.33,-194.84 233,-431.94 233,-711.27zm-1671.91 419c0,-401.95 113.44,-722.52 340.33,-961.65 226.86,-239.15 524.91,-358.72 894.19,-358.72 320.19,0 570.23,88.25 750.1,264.69 179.87,176.49 269.79,413.89 269.79,712.31 0,351.54 -112.41,655.42 -337.24,911.57 -224.83,256.19 -525.97,384.26 -903.4,384.26 -204.39,0 -385.6,-40.89 -543.67,-122.63 -158.07,-81.77 -275.93,-197.57 -353.6,-347.46 -77.66,-149.89 -116.5,-310.68 -116.5,-482.36z"/>
  <path class="fil2 str0" d="M3425.77 7248.12c0,168.98 41.2,300.14 123.65,393.45 82.43,93.36 179.52,140.01 291.27,140.01 96.72,0 190.08,-35.05 280.02,-105.26 89.93,-70.16 164.52,-186.66 223.79,-349.52 59.29,-162.79 88.93,-313.74 88.93,-452.72 0,-162.13 -38.84,-286.47 -116.51,-373 -77.67,-86.52 -176.48,-129.8 -296.35,-129.8 -111.76,0 -213.6,39.87 -305.57,119.57 -91.97,79.72 -163.19,196.93 -213.59,351.55 -50.41,154.67 -75.63,289.91 -75.63,405.71zm-310.28 -1244.73l446.94 0c33.85,0 59.11,31.17 52.13,64.29l-3.75 17.73c-9.95,47.18 43.12,82.4 82.53,54.65 77.08,-54.3 150.7,-95.76 220.91,-124.41 103.53,-42.2 214.62,-63.35 333.15,-63.35 227.54,0 410.47,78.37 548.81,235.05 138.28,156.7 207.45,390.38 207.45,701.04 0,391.09 -119.26,721.51 -357.69,991.31 -204.39,230.28 -446.27,345.4 -725.57,345.4 -245.89,0 -440.42,-85.19 -583.66,-255.59 -28.59,-34.02 -83.74,-20.22 -92.82,23.29l-201.73 966.6c-5.16,24.7 -26.93,42.39 -52.17,42.39l-477.74 0c-33.79,0 -59.06,-31.08 -52.16,-64.16l603.2 -2891.84c5.16,-24.7 26.93,-42.4 52.17,-42.4z"/>
  <path class="fil2 str0" d="M5658.06 6003.39l438.93 0c33.82,0 59.06,31.08 52.17,64.17l-25.4 121.62c-11.21,53.67 56.23,87.11 92.24,45.76 164.1,-188.43 338.42,-282.65 522.91,-282.65 68.66,0 141.37,13.97 218.13,41.86 29.27,10.64 42.96,44.49 29.75,72.71l-181.35 387.4c-10.88,23.27 -36.74,35.17 -61.61,28.77 -40.66,-10.44 -83.17,-15.67 -127.54,-15.67 -100.86,0 -203.37,38.16 -307.62,114.45 -104.24,76.32 -185.67,178.18 -244.25,305.57 -58.59,127.41 -116.48,329.4 -173.72,606.01l-134.18 638.29c-5.19,24.67 -26.94,42.32 -52.14,42.32l-477.79 0c-33.81,0 -59.08,-31.09 -52.16,-64.17l431.47 -2064.07c5.16,-24.68 26.91,-42.38 52.14,-42.38z"/>
  <path class="fil2 str0" d="M7491.48 5177.66l477.77 0c33.79,0 59.04,31.04 52.17,64.11l-88.24 424.85c-5.13,24.72 -26.91,42.44 -52.17,42.44l-477.77 0c-33.78,0 -59.04,-31.03 -52.16,-64.11l88.24 -424.84c5.14,-24.73 26.9,-42.45 52.16,-42.45zm-171.73 825.72l477.72 0c33.82,0 59.08,31.09 52.15,64.18l-431.45 2064.06c-5.16,24.7 -26.95,42.39 -52.16,42.39l-477.74 0c-33.81,0 -59.08,-31.09 -52.14,-64.18l431.48 -2064.06c5.15,-24.7 26.93,-42.39 52.14,-42.39z"/>
  <path class="fil2 str0" d="M8490.92 6003.39l447.45 0c33.7,0 58.92,30.86 52.21,63.87l-14.85 73.22c-9.72,47.95 45.06,82.55 84.15,53.12 96.75,-72.84 188.69,-127.73 275.8,-164.65 120.59,-51.1 247.66,-76.65 381.21,-76.65 178.48,0 319.16,51.1 422.04,153.3 102.87,102.19 154.31,237.8 154.31,406.74 0,76.33 -22.48,220.74 -67.43,433.3l-246.68 1185.95c-5.13,24.72 -26.9,42.43 -52.15,42.43l-477.69 0c-33.82,0 -59.08,-31.08 -52.17,-64.17l244.14 -1168.29c38.13,-183.95 57.22,-293.61 57.22,-329.07 0,-74.92 -22.15,-133.87 -66.41,-176.81 -44.29,-42.92 -105.96,-64.37 -184.97,-64.37 -85.86,0 -181.24,36.11 -286.15,108.32 -104.93,72.25 -187.37,167.6 -247.31,286.15 -43.63,84.51 -92.67,256.87 -147.16,517.1l-177.15 848.74c-5.15,24.7 -26.93,42.39 -52.16,42.39l-477.73 0c-33.81,0 -59.08,-31.09 -52.14,-64.17l431.48 -2064.07c5.15,-24.68 26.91,-42.38 52.14,-42.38z"/>
  <path class="fil2 str0" d="M10703.02 6374.69l67.91 -328.8c5.11,-24.75 26.92,-42.5 52.17,-42.5l199.31 0c25.3,0 47.09,-17.78 52.19,-42.53l58.08 -282.06c3,-14.57 11.97,-27.23 24.71,-34.91l547.81 -329.67c39.84,-23.98 89.15,11.04 79.63,56.56l-118.94 568.41c-6.92,33.1 18.34,64.2 52.16,64.2l226.67 0c33.78,0 59.02,31 52.2,64.07l-67.93 328.79c-5.12,24.75 -26.9,42.5 -52.19,42.5l-273.02 0c-25.23,0 -46.99,17.69 -52.16,42.39l-181.22 867.14c-34.08,164.89 -51.08,258.92 -51.08,282.06 0,44.97 14.29,80.06 42.92,105.26 28.6,25.24 80.38,37.81 155.32,37.81 19.29,0 60.19,-2.64 122.69,-7.94 35.55,-3.02 63.98,29.18 56.6,64.1l-69.72 330c-4.46,21.11 -21.14,37.77 -42.4,41.56 -89.75,16 -181.63,24 -275.64,24 -207.14,0 -357.67,-39.86 -451.7,-119.57 -94.03,-79.72 -141.01,-190.41 -141.01,-332.15 0,-66.73 25.15,-220.72 75.61,-461.91l168.54 -808.59c6.89,-33.09 -18.36,-64.16 -52.17,-64.16l-153.17 0c-33.75,0 -59,-30.99 -52.17,-64.06z"/>
  <path class="fil2 str0" d="M12959.75 2077.99c-19.18,30.73 -41.96,59.84 -68.64,86.52 -91.82,91.81 -213.89,142.38 -343.73,142.38 -129.86,0 -251.92,-50.57 -343.73,-142.38 -189.53,-189.53 -189.53,-497.94 0,-687.47 51.94,-51.94 113.58,-90.66 180.81,-114.51 -67.23,-23.85 -128.87,-62.57 -180.81,-114.51 -91.81,-91.81 -142.38,-213.89 -142.38,-343.74 0,-22.17 1.59,-44.09 4.49,-65.7 -567.06,-486.79 -1303.67,-781.37 -2107.85,-781.37 -1786.7,0 -3240.3,1453.59 -3240.3,3240.29l1055.67 0c0,-1204.63 980.06,-2184.63 2184.63,-2184.63 1204.56,0 2184.62,980 2184.62,2184.63l1055.67 0c0,-431.18 -84.88,-842.87 -238.44,-1219.5z"/>
 </g>
</svg>
